<?xml version="1.0" standalone="no"?>
<!DOCTYPE svg PUBLIC "-//W3C//DTD SVG 1.1//EN" "http://www.w3.org/Graphics/SVG/1.1/DTD/svg11.dtd" >
<svg xmlns="http://www.w3.org/2000/svg" xmlns:xlink="http://www.w3.org/1999/xlink" version="1.1">
<metadata>
Created by FontForge 20190801 at Thu Sep 15 15:07:00 2022
 By www-data
copyright missing
</metadata>
<defs>
<font id="MADEOkineSansPERSONALUSEBlack" horiz-adv-x="0" >
  <font-face 
    font-family="MADEOkineSansPERSONALUSEBlack"
    font-weight="900"
    font-stretch="normal"
    units-per-em="1000"
    panose-1="0 0 0 0 0 0 0 0 0 0"
    ascent="800"
    descent="-200"
    x-height="507"
    cap-height="700"
    bbox="-79 -330 1230 990"
    underline-thickness="50"
    underline-position="-125"
    unicode-range="U+0020-E000"
  />
<missing-glyph horiz-adv-x="660" 
d="M541 990v-1320h-418v1320h418zM220 -239h220v44h-135l92 62h43v43h-220v-43h93l-93 -62v-44zM220 -59h220v149h-220v-149zM220 169h220v149h-132v-74h44v31h44v-62h-132v105h-44v-149zM220 347h220v132h-44v-87h-176v-45zM220 422h132v93h88v43h-220v-43h88v-49h-88v-44z
M220 594h220v45h-88v92h-132v-137zM220 766h220v43h-88v49h88v44h-218v-44h86v-49h-88v-43zM264 -16v62h132v-62h-132zM264 639v47h44v-47h-44z" />
    <glyph glyph-name="f_f.liga" unicode="ff" horiz-adv-x="797" 
d="M92 0v337h-82v169h82v32q0 45 9.5 82.5t30 70.5t60 51.5t93.5 18.5q82 0 142 -48l-73 -142q-15 15 -35 15q-40 0 -40 -48v-32h161v32q0 45 9.5 82.5t30 70.5t60 51.5t93.5 18.5q106 0 164 -70l-95 -120q-15 15 -35 15q-40 0 -40 -48v-32h120v-169h-120v-337h-187v337
h-161v-337h-187z" />
    <glyph glyph-name="f_f_i.liga" unicode="ffi" horiz-adv-x="1018" 
d="M92 0v337h-82v169h82v32q0 45 9.5 82.5t30 70.5t60 51.5t93.5 18.5q84 0 142 -48l-73 -142q-15 15 -34 15q-41 0 -41 -48v-32h161v32q0 45 9.5 82.5t30 70.5t60 51.5t93.5 18.5q74 0 128 -38l-59 -152q-20 15 -36 15q-39 0 -39 -48v-32h348v-506h-187v337h-161v-337h-187
v337h-161v-337h-187zM780 655q0 41 30 71t72 30q41 0 71 -30t30 -71q0 -42 -30 -72t-71 -30q-42 0 -72 30t-30 72z" />
    <glyph glyph-name="f_i.liga" unicode="fi" horiz-adv-x="670" 
d="M92 0v337h-82v169h82v32q0 45 9.5 82.5t30 70.5t60 51.5t93.5 18.5q74 0 128 -38l-59 -152q-20 15 -36 15q-39 0 -39 -48v-32h348v-506h-187v337h-161v-337h-187zM432 655q0 41 30 71t71 30q42 0 72 -30t30 -71q0 -42 -30 -72t-72 -30q-41 0 -71 30t-30 72z" />
    <glyph glyph-name="f_l.liga" unicode="fl" horiz-adv-x="676" 
d="M92 0v337h-82v169h82v5q0 110 69 184.5t199 74.5q125 0 200.5 -69.5t75.5 -176.5v-524h-187l-1 496q0 45 -22.5 72t-65.5 27q-39 0 -60 -25t-21 -59v-5h120v-169h-120v-337h-187z" />
    <glyph glyph-name="f_t.liga" unicode="ft" horiz-adv-x="807" 
d="M633 -8q-193 0 -193 206v139h-161v-337h-187v337h-82v169h82v32q0 45 9.5 82.5t30 70.5t60 51.5t93.5 18.5q107 0 164 -70l-95 -120q-11 15 -34 15q-41 0 -41 -48v-32h161v114h187v-114h123v-169h-123v-124q0 -47 41 -47q23 0 34 15l95 -119q-57 -70 -164 -70z" />
    <glyph glyph-name=".notdef" horiz-adv-x="660" 
d="M541 990v-1320h-418v1320h418zM220 -239h220v44h-135l92 62h43v43h-220v-43h93l-93 -62v-44zM220 -59h220v149h-220v-149zM220 169h220v149h-132v-74h44v31h44v-62h-132v105h-44v-149zM220 347h220v132h-44v-87h-176v-45zM220 422h132v93h88v43h-220v-43h88v-49h-88v-44z
M220 594h220v45h-88v92h-132v-137zM220 766h220v43h-88v49h88v44h-218v-44h86v-49h-88v-43zM264 -16v62h132v-62h-132zM264 639v47h44v-47h-44z" />
    <glyph glyph-name=".null" 
 />
    <glyph glyph-name="nonmarkingreturn" horiz-adv-x="333" 
 />
    <glyph glyph-name="space" unicode=" " horiz-adv-x="230" 
 />
    <glyph glyph-name="space" unicode="&#xa0;" horiz-adv-x="230" 
 />
    <glyph glyph-name="exclam" unicode="!" horiz-adv-x="329" 
d="M80 253l-18 447h205l-18 -447h-169zM60 93q0 43 30.5 73.5t73.5 30.5t74 -30.5t31 -73.5t-30.5 -73.5t-74.5 -30.5q-43 0 -73.5 30.5t-30.5 73.5z" />
    <glyph glyph-name="quotedbl" unicode="&#x22;" horiz-adv-x="458" 
d="M249 463v237h169v-237h-169zM40 463v237h169v-237h-169z" />
    <glyph glyph-name="numbersign" unicode="#" horiz-adv-x="665" 
d="M62 47l31 124h-63v143h98l19 73h-81v142h116l31 124h152l-31 -124h86l31 124h152l-31 -124h63v-142h-98l-18 -73h81v-143h-116l-31 -124h-152l30 124h-86l-30 -124h-153zM281 314h86l18 73h-86z" />
    <glyph glyph-name="dollar" unicode="$" horiz-adv-x="574" 
d="M236 -8q-97 14 -151.5 75t-54.5 146l195 15q2 -60 67 -60q26 0 40.5 10t14.5 27q0 20 -19 29.5t-96 35.5q-93 31 -136 80.5t-43 140.5q0 87 51.5 144t131.5 72v116h116v-118q74 -16 119 -65t51 -117l-191 -22q-1 17 -12 29.5t-29 12.5q-17 0 -28 -9.5t-11 -25.5
q0 -20 14.5 -32t55.5 -25q63 -21 99.5 -37t70.5 -42t48.5 -61.5t14.5 -85.5q0 -100 -53.5 -158.5t-148.5 -73.5v-116h-116v115z" />
    <glyph glyph-name="percent" unicode="%" horiz-adv-x="853" 
d="M111 0l479 700h152l-480 -700h-151zM30 536q0 76 53.5 129.5t129.5 53.5t129.5 -53.5t53.5 -129.5t-53.5 -129.5t-129.5 -53.5t-129.5 53.5t-53.5 129.5zM163 536q0 -20 14.5 -34.5t35.5 -14.5q20 0 35 14.5t15 34.5q0 21 -15 35.5t-35 14.5q-21 0 -35.5 -14.5
t-14.5 -35.5zM457 163q0 76 53.5 130t129.5 54t129.5 -54t53.5 -130t-53.5 -129.5t-129.5 -53.5t-129.5 53.5t-53.5 129.5zM590 163q0 -20 15 -34.5t35 -14.5t35 14.5t15 34.5q0 21 -15 35.5t-35 14.5t-35 -14.5t-15 -35.5z" />
    <glyph glyph-name="ampersand" unicode="&#x26;" horiz-adv-x="683" 
d="M288 -11q-118 0 -188 61t-70 154q0 122 115 185q-21 19 -38 55t-17 77q0 86 63.5 138t146.5 52t141 -47.5t58 -122.5q0 -100 -90 -159l60 -60q9 18 31 66l152 -66q-31 -84 -55 -130q35 -36 76 -77l-126 -114l-58 55q-84 -67 -201 -67zM228 215q0 -24 19 -39t48 -15
q35 0 65 20q-20 20 -54 52.5t-41 38.5q-14 -6 -25.5 -21.5t-11.5 -35.5zM260 539q0 -30 32 -50q47 19 47 53q0 17 -11.5 27t-28.5 10q-18 0 -28.5 -11.5t-10.5 -28.5z" />
    <glyph glyph-name="quotesingle" unicode="'" horiz-adv-x="258" 
d="M40 463v237h178v-237h-178z" />
    <glyph glyph-name="parenleft" unicode="(" horiz-adv-x="430" 
d="M265 -225q-205 251 -205 575t205 575l145 -118q-163 -198 -163 -457t163 -457z" />
    <glyph glyph-name="parenright" unicode=")" horiz-adv-x="429" 
d="M20 -107q163 200 163 457t-163 457l144 118q205 -249 205 -575t-205 -575z" />
    <glyph glyph-name="asterisk" unicode="*" horiz-adv-x="412" 
d="M167 337l-136 99l59 55l-80 9l52 161l71 -40l-17 79h169l-16 -79l70 40l53 -161l-81 -9l60 -55l-137 -99l-33 74z" />
    <glyph glyph-name="plus" unicode="+" horiz-adv-x="454" 
d="M129 101v99h-99v196h99v99h196v-99h99v-196h-99v-99h-196z" />
    <glyph glyph-name="comma" unicode="," horiz-adv-x="254" 
d="M-30 -140l76 210h188l-111 -210h-153z" />
    <glyph glyph-name="hyphen" unicode="-" horiz-adv-x="534" 
d="M70 200v196h394v-196h-394z" />
    <glyph glyph-name="period" unicode="." horiz-adv-x="288" 
d="M144 -11q-44 0 -74 30.5t-30 73.5t30.5 73.5t73.5 30.5t73.5 -30.5t30.5 -73.5t-30 -73.5t-74 -30.5z" />
    <glyph glyph-name="slash" unicode="/" horiz-adv-x="556" 
d="M20 -151l334 1002h192l-334 -1002h-192z" />
    <glyph glyph-name="zero" unicode="0" horiz-adv-x="672" 
d="M336 -12q-143 0 -224.5 105.5t-81.5 256.5t81.5 256.5t224.5 105.5q144 0 225 -105.5t81 -256.5t-81 -256.5t-225 -105.5zM244 350q0 -60 22 -105t70 -45t70.5 45.5t22.5 104.5t-22.5 104.5t-70.5 45.5t-70 -45t-22 -105z" />
    <glyph glyph-name="one" unicode="1" horiz-adv-x="415" 
d="M161 0v485l-67 -34l-64 161l167 88h178v-700h-214z" />
    <glyph glyph-name="two" unicode="2" horiz-adv-x="555" 
d="M49 169q18 16 48.5 44t46 42.5t40.5 38t38 36.5t31 32t27 31.5t18.5 27t13 26.5t3.5 23q0 24 -14.5 39.5t-35.5 15.5q-42 0 -58 -52l-177 50q23 91 87 140t152 49q105 0 173.5 -63t68.5 -166q0 -39 -9.5 -73.5t-20.5 -58t-39.5 -57t-46 -50.5t-59.5 -57h189v-187h-476
v169z" />
    <glyph glyph-name="three" unicode="3" horiz-adv-x="561" 
d="M281 -12q-95 0 -165 51.5t-86 135.5l174 53q0 -26 19.5 -44t48.5 -18q27 0 45 18t18 44t-16 43.5t-45 17.5h-65v158h65q24 0 38 15t14 37t-15 37t-37 15q-20 0 -35.5 -13.5t-16.5 -32.5l-160 22q7 80 70.5 132.5t150.5 52.5q90 0 155.5 -59.5t65.5 -144.5q0 -75 -57 -132
q84 -62 84 -157q0 -103 -71.5 -167t-178.5 -64z" />
    <glyph glyph-name="four" unicode="4" horiz-adv-x="599" 
d="M284 0v134h-254v160l251 406h216v-406h72v-160h-72v-134h-213zM193 294h91v147z" />
    <glyph glyph-name="five" unicode="5" horiz-adv-x="550" 
d="M283 -12q-95 0 -163.5 51.5t-89.5 132.5l180 55q4 -22 21.5 -37t42.5 -15t41 16t16 41t-16.5 41.5t-40.5 16.5q-14 0 -26 -7t-15 -12l-172 39l44 390h375v-196h-220l-6 -47q18 3 38 3q102 0 165 -61t63 -167q0 -101 -68.5 -172.5t-168.5 -71.5z" />
    <glyph glyph-name="six" unicode="6" horiz-adv-x="553" 
d="M276 -12q-102 0 -174 72.5t-72 174.5q0 70 36 126l216 339h215l-151 -236q78 -21 127.5 -83.5t49.5 -145.5q0 -102 -72 -174.5t-175 -72.5zM217 235q0 -25 17 -42.5t42 -17.5t42.5 17.5t17.5 42.5t-17.5 42.5t-42.5 17.5t-42 -17.5t-17 -42.5z" />
    <glyph glyph-name="seven" unicode="7" horiz-adv-x="517" 
d="M30 0l252 504h-252v196h457v-196l-242 -504h-215z" />
    <glyph glyph-name="eight" unicode="8" horiz-adv-x="556" 
d="M278 -12q-101 0 -174.5 67t-73.5 164q0 98 78 158q-51 56 -51 131q0 86 66 145t155 59t155 -59t66 -145q0 -74 -52 -131q79 -59 79 -158q0 -97 -73.5 -164t-174.5 -67zM217 228q0 -26 18 -44t43 -18t43 18.5t18 43.5t-18 43t-43 18t-43 -18t-18 -43zM226 499
q0 -21 15 -36.5t37 -15.5q21 0 36.5 15.5t15.5 36.5q0 22 -15.5 37t-36.5 15q-22 0 -37 -15t-15 -37z" />
    <glyph glyph-name="nine" unicode="9" horiz-adv-x="553" 
d="M207 236q-78 21 -127.5 83.5t-49.5 145.5q0 102 72.5 174.5t174.5 72.5t174 -72.5t72 -174.5q0 -69 -36 -127l-216 -338h-215zM217 465q0 -25 17.5 -42.5t42.5 -17.5t42 17.5t17 42.5t-17 42.5t-42 17.5t-42.5 -17.5t-17.5 -42.5z" />
    <glyph glyph-name="colon" unicode=":" horiz-adv-x="289" 
d="M144 310q-43 0 -73.5 30.5t-30.5 73.5t30.5 73.5t73.5 30.5q44 0 74.5 -30.5t30.5 -73.5t-31 -73.5t-74 -30.5zM40 93q0 43 30.5 73.5t73.5 30.5t74 -30.5t31 -73.5t-30.5 -73.5t-74.5 -30.5q-43 0 -73.5 30.5t-30.5 73.5z" />
    <glyph glyph-name="semicolon" unicode=";" horiz-adv-x="275" 
d="M-30 -140l76 210h188l-111 -210h-153zM36 414q0 43 30.5 73.5t73.5 30.5q44 0 74.5 -30.5t30.5 -73.5t-31 -73.5t-74 -30.5t-73.5 30.5t-30.5 73.5z" />
    <glyph glyph-name="less" unicode="&#x3c;" horiz-adv-x="498" 
d="M448 27l-398 186v170l398 186v-189l-198 -82l198 -83v-188z" />
    <glyph glyph-name="equal" unicode="=" horiz-adv-x="530" 
d="M50 324v169h430v-169h-430zM50 103v169h430v-169h-430z" />
    <glyph glyph-name="greater" unicode="&#x3e;" horiz-adv-x="499" 
d="M50 27v188l198 83l-198 82v189l399 -186v-170z" />
    <glyph glyph-name="question" unicode="?" horiz-adv-x="497" 
d="M148 253q0 87 84 171l10.5 10.5l9 9l7.5 7.5t7 7.5t5 6.5t4 6.5t2.5 6t2 6.5t0.5 7q0 13 -9.5 24t-25.5 11q-18 0 -28 -12.5t-11 -27.5l-186 23q10 80 71.5 142t152.5 62q92 0 157.5 -63t65.5 -152q0 -43 -13.5 -77.5t-33 -57t-39 -40.5t-33 -35.5t-13.5 -34.5h-187z
M139 93q0 43 31 73.5t74 30.5t73.5 -30.5t30.5 -73.5t-30.5 -73.5t-73.5 -30.5q-44 0 -74.5 30.5t-30.5 73.5z" />
    <glyph glyph-name="at" unicode="@" horiz-adv-x="1054" 
d="M516 -208q-216 0 -351 130.5t-135 334.5q0 201 138 330.5t349 129.5q102 0 193 -29.5t161 -83.5t111.5 -138t41.5 -186q0 -119 -57 -188.5t-151 -69.5q-110 0 -165 76q-57 -76 -152 -76q-98 0 -162.5 66.5t-64.5 166.5t64.5 166.5t162.5 66.5q58 0 104 -30v20h164v-248
q0 -65 49 -65q35 0 50.5 34.5t15.5 80.5q0 64 -22 115.5t-58 84.5t-84.5 55t-98 31t-102.5 9q-153 0 -249 -88t-96 -230q0 -146 93.5 -234.5t250.5 -88.5q93 0 186 54l73 -123q-122 -73 -259 -73zM436 255q0 -31 22 -52.5t52 -21.5q31 0 53 21.5t22 52.5t-22 52.5t-53 21.5
q-30 0 -52 -21.5t-22 -52.5z" />
    <glyph glyph-name="A" unicode="A" horiz-adv-x="754" 
d="M0 0l258 700h238l258 -700h-228l-37 112h-224l-37 -112h-228zM321 281h112l-56 171z" />
    <glyph glyph-name="B" unicode="B" horiz-adv-x="612" 
d="M40 0v700h251q119 0 195 -47.5t76 -147.5q0 -83 -52 -133q82 -55 82 -155q0 -60 -24 -103.5t-65.5 -67.5t-90.5 -35t-107 -11h-265zM253 169h52q71 0 71 57q0 26 -18 41.5t-53 15.5h-52v-114zM253 435h38q36 0 51 12t15 36q0 48 -66 48h-38v-96z" />
    <glyph glyph-name="C" unicode="C" horiz-adv-x="698" 
d="M383 -11q-150 0 -256.5 105.5t-106.5 255.5t106.5 256t256.5 106q92 0 171.5 -43t129.5 -116l-177 -119q-45 66 -124 66q-62 0 -106 -44t-44 -106t44 -106t106 -44q83 0 128 73l177 -120q-50 -76 -130.5 -120t-174.5 -44z" />
    <glyph glyph-name="D" unicode="D" horiz-adv-x="698" 
d="M40 0v700h245q180 0 286.5 -96.5t106.5 -253.5q0 -156 -106.5 -253t-286.5 -97h-245zM254 196h31q82 0 128.5 41t46.5 113t-46.5 113t-128.5 41h-31v-308z" />
    <glyph glyph-name="E" unicode="E" horiz-adv-x="552" 
d="M40 0v700h473v-196h-259v-69h250v-160h-250v-79h268v-196h-482z" />
    <glyph glyph-name="F" unicode="F" horiz-adv-x="543" 
d="M40 0v700h473v-196h-260v-87h233v-169h-233v-248h-213z" />
    <glyph glyph-name="G" unicode="G" horiz-adv-x="761" 
d="M383 -11q-150 0 -256.5 105.5t-106.5 255.5t106.5 256t256.5 106q92 0 171.5 -43t129.5 -116l-177 -119q-45 66 -124 66q-62 0 -106 -44.5t-44 -105.5q0 -67 41 -112.5t109 -45.5q92 0 127 74h-162v151h391q7 -104 -16 -186t-71.5 -134.5t-116.5 -80t-152 -27.5z" />
    <glyph glyph-name="H" unicode="H" horiz-adv-x="737" 
d="M40 0v700h214v-252h230v252h213v-700h-213v252h-230v-252h-214z" />
    <glyph glyph-name="I" unicode="I" horiz-adv-x="294" 
d="M40 0v700h214v-700h-214z" />
    <glyph glyph-name="J" unicode="J" horiz-adv-x="548" 
d="M260 -11q-107 0 -179 53t-81 139l194 56q2 -19 15.5 -31.5t35.5 -12.5q49 0 49 63v444h214v-444q0 -267 -248 -267z" />
    <glyph glyph-name="K" unicode="K" horiz-adv-x="661" 
d="M40 0v700h214v-289l165 289h241l-202 -338l213 -362h-253l-164 285v-285h-214z" />
    <glyph glyph-name="L" unicode="L" horiz-adv-x="534" 
d="M40 0v700h214v-504h250v-196h-464z" />
    <glyph glyph-name="M" unicode="M" horiz-adv-x="813" 
d="M40 0v700h219l148 -210l147 210h219v-700h-213v396l-113 -154h-81l-112 154v-396h-214z" />
    <glyph glyph-name="N" unicode="N" horiz-adv-x="746" 
d="M40 0v700h235l218 -369v369h213v-700h-234l-218 369v-369h-214z" />
    <glyph glyph-name="O" unicode="O" horiz-adv-x="767" 
d="M383 -11q-150 0 -256.5 105.5t-106.5 255.5t106.5 256t256.5 106q151 0 257.5 -105.5t106.5 -256.5q0 -150 -106.5 -255.5t-257.5 -105.5zM234 350q0 -62 44 -106t105 -44q62 0 106 44t44 106t-44 106t-106 44t-105.5 -44t-43.5 -106z" />
    <glyph glyph-name="P" unicode="P" horiz-adv-x="609" 
d="M40 0v700h264q124 0 204.5 -66t80.5 -182t-80.5 -182t-204.5 -66h-50v-204h-214zM254 391h50q31 0 50 16.5t19 44.5t-19 44.5t-50 16.5h-50v-122z" />
    <glyph glyph-name="Q" unicode="Q" horiz-adv-x="781" 
d="M563 36q-83 -47 -180 -47q-150 0 -256.5 105.5t-106.5 255.5t106.5 256t256.5 106q151 0 257.5 -105.5t106.5 -256.5q0 -114 -65 -206l89 -93l-115 -111zM234 350q0 -62 44 -106t105 -44q7 0 21 2l-83 86l116 111l89 -93q7 20 7 44q0 62 -44 106t-106 44t-105.5 -44
t-43.5 -106z" />
    <glyph glyph-name="R" unicode="R" horiz-adv-x="628" 
d="M40 0v700h255q122 0 199 -64.5t77 -174.5q0 -130 -103 -194l160 -267h-239l-130 222h-5v-222h-214zM254 409h41q28 0 44 14.5t16 37.5t-16 37.5t-44 14.5h-41v-104z" />
    <glyph glyph-name="S" unicode="S" horiz-adv-x="564" 
d="M279 -11q-121 0 -190 63.5t-69 160.5l195 15q2 -60 66 -60q56 0 56 37q0 20 -19 29.5t-96 35.5q-93 31 -136 81t-43 140q0 102 68 161.5t165 59.5q100 0 164 -53t72 -136l-191 -22q-1 18 -12 30t-29 12q-17 0 -28 -9.5t-11 -25.5q0 -20 14.5 -32t55.5 -25
q62 -20 99 -36.5t71 -42t48.5 -61.5t14.5 -86q0 -115 -71.5 -175.5t-193.5 -60.5z" />
    <glyph glyph-name="T" unicode="T" horiz-adv-x="584" 
d="M185 0v504h-155v196h524v-196h-155v-504h-214z" />
    <glyph glyph-name="U" unicode="U" horiz-adv-x="706" 
d="M353 -11q-147 0 -230 76t-83 236v399h214v-390q0 -55 26.5 -82.5t72.5 -27.5t72.5 27.5t26.5 82.5v390h214v-399q0 -160 -83 -236t-230 -76z" />
    <glyph glyph-name="V" unicode="V" horiz-adv-x="754" 
d="M258 0l-258 700h228l149 -435l149 435h228l-257 -700h-239z" />
    <glyph glyph-name="W" unicode="W" horiz-adv-x="1113" 
d="M231 0l-231 700h228l119 -411l125 411h169l125 -411l119 411h228l-231 -700h-212l-113 376l-114 -376h-212z" />
    <glyph glyph-name="X" unicode="X" horiz-adv-x="699" 
d="M0 0l214 364l-197 336h235l97 -185l98 185h234l-198 -335l216 -365h-235l-115 207l-115 -207h-234z" />
    <glyph glyph-name="Y" unicode="Y" horiz-adv-x="743" 
d="M265 0v297l-265 403h243l128 -218l129 218h243l-265 -403v-297h-213z" />
    <glyph glyph-name="Z" unicode="Z" horiz-adv-x="613" 
d="M40 0v169l246 335h-237v196h497v-169l-245 -335h272v-196h-533z" />
    <glyph glyph-name="bracketleft" unicode="[" horiz-adv-x="392" 
d="M70 -151v1002h282v-160h-95v-682h95v-160h-282z" />
    <glyph glyph-name="backslash" unicode="\" horiz-adv-x="555" 
d="M343 -151l-333 1002h191l334 -1002h-192z" />
    <glyph glyph-name="bracketright" unicode="]" horiz-adv-x="391" 
d="M40 -151v160h94v682h-94v160h281v-1002h-281z" />
    <glyph glyph-name="asciicircum" unicode="^" horiz-adv-x="508" 
d="M10 472l150 228h188l150 -228h-197l-47 82l-47 -82h-197z" />
    <glyph glyph-name="underscore" unicode="_" horiz-adv-x="612" 
d="M60 -129v187h492v-187h-492z" />
    <glyph glyph-name="a" unicode="a" horiz-adv-x="622" 
d="M278 -12q-112 0 -185 76t-73 189t73 189t185 76q66 0 118 -35v23h186v-506h-186v23q-52 -35 -118 -35zM207 253q0 -35 24.5 -59.5t59.5 -24.5t59.5 24.5t24.5 59.5t-24.5 59.5t-59.5 24.5t-59.5 -24.5t-24.5 -59.5z" />
    <glyph glyph-name="b" unicode="b" horiz-adv-x="623" 
d="M345 -12q-65 0 -118 35v-23h-187v744h187v-261q53 35 118 35q112 0 185 -76t73 -189t-73 -189t-185 -76zM248 253q0 -35 25 -59.5t59 -24.5t59 24.5t25 59.5t-24.5 59.5t-59.5 24.5t-59.5 -24.5t-24.5 -59.5z" />
    <glyph glyph-name="c" unicode="c" horiz-adv-x="550" 
d="M291 -12q-112 0 -191.5 77t-79.5 188q0 112 79 188.5t192 76.5q82 0 149.5 -43.5t99.5 -114.5l-169 -81q-8 26 -30 42t-50 16q-35 0 -59.5 -24.5t-24.5 -59.5t24.5 -59.5t59.5 -24.5q28 0 50 16.5t30 41.5l169 -81q-32 -71 -99.5 -114.5t-149.5 -43.5z" />
    <glyph glyph-name="d" unicode="d" horiz-adv-x="622" 
d="M277 -12q-111 0 -184 76t-73 189t73 189t184 76q67 0 118 -35v261h187v-744h-187v23q-51 -35 -118 -35zM207 253q0 -35 24.5 -59.5t59.5 -24.5t59.5 24.5t24.5 59.5t-24.5 59.5t-59.5 24.5t-59.5 -24.5t-24.5 -59.5z" />
    <glyph glyph-name="e" unicode="e" horiz-adv-x="585" 
d="M305 -12q-129 0 -207 75.5t-78 189.5q0 112 79 188.5t192 76.5q56 0 108.5 -23t92 -63t59.5 -101t11 -131h-360q30 -58 103 -58q66 0 99 43l139 -64q-31 -59 -94 -96t-144 -37zM203 306h182q-27 58 -94 58q-59 0 -88 -58z" />
    <glyph glyph-name="f" unicode="f" horiz-adv-x="449" 
d="M92 0v337h-82v169h82v32q0 45 9.5 82.5t30 70.5t60 51.5t93.5 18.5q107 0 164 -70l-95 -120q-15 15 -34 15q-41 0 -41 -48v-32h120v-169h-120v-337h-187z" />
    <glyph glyph-name="g" unicode="g" horiz-adv-x="623" 
d="M299 -238q-89 0 -161 38t-100 96l141 81q11 -17 39.5 -34.5t71.5 -17.5q58 0 82 29.5t24 72.5v4q-52 -34 -118 -34q-112 0 -185 72t-73 184q0 113 73.5 189t184.5 76q66 0 118 -36v24h187v-479q0 -127 -77 -196t-207 -69zM207 253q0 -35 25 -59.5t60 -24.5q34 0 59 24.5
t25 59.5t-24.5 59.5t-59.5 24.5t-60 -24.5t-25 -59.5z" />
    <glyph glyph-name="h" unicode="h" horiz-adv-x="619" 
d="M40 0v744h187v-273q53 47 137 47q104 0 159.5 -71.5t55.5 -175.5v-271h-187v253q0 35 -22 61t-59 26q-38 0 -61 -25t-23 -64v-251h-187z" />
    <glyph glyph-name="i" unicode="i" horiz-adv-x="272" 
d="M42 0v506h187v-506h-187zM35 655q0 41 29.5 71t71.5 30t71.5 -30t29.5 -71q0 -42 -29.5 -72t-71.5 -30t-71.5 30t-29.5 72z" />
    <glyph glyph-name="j" unicode="j" horiz-adv-x="268" 
d="M-20 -48q35 0 49 17.5t14 56.5v480h187v-488q0 -131 -58.5 -193.5t-191.5 -62.5v190zM35 655q0 41 30 71t72 30t71.5 -30t29.5 -71q0 -42 -29.5 -72t-71.5 -30t-72 30t-30 72z" />
    <glyph glyph-name="k" unicode="k" horiz-adv-x="548" 
d="M40 0v744h187v-411l104 173h204l-146 -230l159 -276h-220l-101 192v-192h-187z" />
    <glyph glyph-name="l" unicode="l" horiz-adv-x="267" 
d="M40 0v744h187v-744h-187z" />
    <glyph glyph-name="m" unicode="m" horiz-adv-x="934" 
d="M40 0v506h187v-30q48 42 127 42q104 0 158 -75q61 75 167 75q104 0 159.5 -71.5t55.5 -175.5v-271h-187v253q0 35 -18.5 61t-53.5 26t-55 -25t-20 -64v-251h-187v253q0 35 -18.5 61t-53.5 26t-54.5 -25t-19.5 -64v-251h-187z" />
    <glyph glyph-name="n" unicode="n" horiz-adv-x="619" 
d="M40 0v506h187v-35q53 47 137 47q104 0 159.5 -71.5t55.5 -175.5v-271h-187v253q0 34 -22.5 60.5t-59.5 26.5t-60 -25t-23 -64v-251h-187z" />
    <glyph glyph-name="o" unicode="o" horiz-adv-x="582" 
d="M291 -12q-112 0 -191.5 77t-79.5 188q0 112 79 188.5t192 76.5t192 -76.5t79 -188.5q0 -111 -79 -188t-192 -77zM207 253q0 -35 24.5 -59.5t59.5 -24.5t59.5 24.5t24.5 59.5t-24.5 59.5t-59.5 24.5t-59.5 -24.5t-24.5 -59.5z" />
    <glyph glyph-name="p" unicode="p" horiz-adv-x="623" 
d="M40 -238v744h187v-23q53 35 118 35q111 0 184.5 -76t73.5 -189q0 -112 -73.5 -188.5t-184.5 -76.5q-65 0 -118 35v-261h-187zM247 253q0 -35 24.5 -59.5t59.5 -24.5t60 24.5t25 59.5t-25 59.5t-60 24.5t-59.5 -24.5t-24.5 -59.5z" />
    <glyph glyph-name="q" unicode="q" horiz-adv-x="623" 
d="M396 23q-52 -35 -118 -35q-112 0 -185 76t-73 189t73 189t185 76q66 0 118 -35v23h187v-744h-187v261zM207 253q0 -35 24.5 -59.5t59.5 -24.5t59.5 24.5t24.5 59.5t-24.5 59.5t-59.5 24.5t-59.5 -24.5t-24.5 -59.5z" />
    <glyph glyph-name="r" unicode="r" horiz-adv-x="384" 
d="M40 0v507h187v-53q46 64 137 64v-178q-68 0 -102.5 -25t-34.5 -108v-207h-187z" />
    <glyph glyph-name="s" unicode="s" horiz-adv-x="487" 
d="M252 -12q-97 0 -162.5 37t-74.5 112l173 29q0 -19 14 -31.5t40 -12.5q44 0 44 27q0 12 -15.5 18.5t-63.5 17.5q-17 4 -27 6q-145 34 -145 160q0 83 61 125t144 42q78 0 136.5 -36t72.5 -98l-154 -32q-2 13 -13.5 23t-32.5 10q-16 0 -25.5 -8t-9.5 -19q0 -16 16 -22.5
t68 -17.5q39 -8 64.5 -16.5t54 -25.5t42.5 -46t13 -70q0 -88 -63 -130t-157 -42z" />
    <glyph glyph-name="t" unicode="t" horiz-adv-x="456" 
d="M282 -8q-193 0 -193 206v140h-79v169h79v113h187v-113h123v-169h-123v-124q0 -48 41 -48q24 0 34 16l95 -120q-57 -70 -164 -70z" />
    <glyph glyph-name="u" unicode="u" horiz-adv-x="618" 
d="M255 -12q-105 0 -160 71.5t-55 176.5v271h186v-254q0 -34 22.5 -60.5t59.5 -26.5t60 25.5t23 63.5v252h187v-507h-187v35q-55 -47 -136 -47z" />
    <glyph glyph-name="v" unicode="v" horiz-adv-x="613" 
d="M213 0l-213 507h205l102 -261l101 261h205l-213 -507h-187z" />
    <glyph glyph-name="w" unicode="w" horiz-adv-x="911" 
d="M195 0l-195 507h202l95 -256l84 256h148l85 -256l94 256h203l-195 -507h-185l-76 228l-75 -228h-185z" />
    <glyph glyph-name="x" unicode="x" horiz-adv-x="609" 
d="M0 0l184 264l-166 243h218l68 -103l68 103h219l-166 -243l184 -264h-219l-85 125l-86 -125h-219z" />
    <glyph glyph-name="y" unicode="y" horiz-adv-x="603" 
d="M93 -238l108 265l-201 480h205l94 -243l99 243h205l-312 -745h-198z" />
    <glyph glyph-name="z" unicode="z" horiz-adv-x="524" 
d="M30 0v160l194 178h-176v169h428v-161l-194 -177h212v-169h-464z" />
    <glyph glyph-name="braceleft" unicode="{" horiz-adv-x="434" 
d="M404 -151q-46 0 -78.5 2.5t-74.5 13t-68 29t-44.5 54t-18.5 85.5v148q0 60 -19.5 83.5t-60.5 23.5v124q41 0 60.5 23.5t19.5 83.5v148q0 50 18.5 85.5t44.5 54t68 29t74.5 13t78.5 2.5v-160q-58 0 -82 -25.5t-24 -87.5v-95q0 -92 -65 -133q65 -41 65 -133v-95
q0 -62 24 -87.5t82 -25.5v-160z" />
    <glyph glyph-name="bar" unicode="|" horiz-adv-x="316" 
d="M60 -240v1091h196v-1091h-196z" />
    <glyph glyph-name="braceright" unicode="}" horiz-adv-x="433" 
d="M30 9q58 0 82 25.5t24 87.5v95q0 92 65 133q-65 41 -65 133v95q0 62 -24 87.5t-82 25.5v160q45 0 77.5 -2.5t74.5 -13t68.5 -29t45 -54t18.5 -85.5v-148q0 -60 19 -83.5t60 -23.5v-124q-41 0 -60 -23.5t-19 -83.5v-148q0 -50 -18.5 -85.5t-45 -54t-68.5 -29t-74.5 -13
t-77.5 -2.5v160z" />
    <glyph glyph-name="asciitilde" unicode="~" horiz-adv-x="639" 
d="M435 166q-32 0 -61.5 9t-44 17.5t-38.5 25.5q-4 2 -11.5 8t-11 8.5t-10 6.5t-11.5 5.5t-11 3t-13 1.5q-40 0 -55 -64l-138 51q17 83 66 141.5t116 58.5q10 0 19.5 -1t18.5 -3t15.5 -4t15 -6t12.5 -6t13 -8t11 -7.5t11.5 -8t10.5 -7.5q46 -34 76 -34q40 0 56 56l138 -50
q-17 -73 -61.5 -133t-112.5 -60z" />
    <glyph glyph-name="exclamdown" unicode="&#xa1;" horiz-adv-x="329" 
d="M62 -193l18 447h169l18 -447h-205zM60 414q0 43 30.5 73.5t74.5 30.5q43 0 73.5 -30.5t30.5 -73.5t-30.5 -73.5t-73.5 -30.5t-74 30.5t-31 73.5z" />
    <glyph glyph-name="cent" unicode="&#xa2;" horiz-adv-x="580" 
d="M250 90q-95 17 -157.5 89.5t-62.5 170.5t62.5 170.5t157.5 89.5v90h115v-92q62 -15 111 -54.5t74 -96.5l-169 -81q-8 26 -30 42t-50 16q-35 0 -59.5 -24.5t-24.5 -59.5q0 -34 24.5 -59t59.5 -25q28 0 50 16.5t30 41.5l169 -81q-26 -57 -74.5 -96.5t-110.5 -53.5v-93h-115
v90z" />
    <glyph glyph-name="sterling" unicode="&#xa3;" horiz-adv-x="614" 
d="M40 169q78 8 78 73q0 20 -4 33h-74v98h35q-23 53 -23 104q0 108 73 172.5t186 64.5q90 0 153.5 -47.5t87.5 -113.5l-189 -78q-12 35 -46 35q-23 0 -37 -15.5t-14 -38.5q0 -31 28 -83h192v-98h-163v-15q0 -41 -17 -73h268v-187h-534v169z" />
    <glyph glyph-name="currency" unicode="&#xa4;" horiz-adv-x="531" 
d="M108 94l-88 84l74 79q-24 43 -24 93q0 49 24 94l-74 78l88 84l74 -79q41 19 84 19q42 0 83 -19l74 79l88 -84l-74 -78q24 -45 24 -94q0 -52 -24 -94l74 -78l-88 -84l-74 79q-41 -19 -83 -19q-43 0 -84 19zM195 350q0 -29 20.5 -50t50.5 -21q29 0 50 21t21 50t-21 50
t-50 21q-30 0 -50.5 -21t-20.5 -50z" />
    <glyph glyph-name="yen" unicode="&#xa5;" horiz-adv-x="763" 
d="M275 0v131h-117v98h117v25h-117v97h81l-229 349h243l128 -217l129 217h243l-229 -349h81v-97h-117v-25h117v-98h-117v-131h-213z" />
    <glyph glyph-name="brokenbar" unicode="&#xa6;" horiz-adv-x="316" 
d="M60 452v399h196v-399h-196zM60 -240v399h196v-399h-196z" />
    <glyph glyph-name="section" unicode="&#xa7;" horiz-adv-x="611" 
d="M296 -194q-106 0 -182 54.5t-84 135.5l195 26q4 -18 20.5 -32.5t45.5 -14.5q28 0 43 11t15 29q0 5 -1 9t-4.5 7.5t-7 6.5t-10 5.5t-11.5 4.5t-15 4.5t-17 4.5t-20 5t-21 5q-98 24 -153 64.5t-55 113.5q0 85 70 137q-39 47 -39 115q0 94 70 154.5t179 60.5q106 0 182 -54
t85 -135l-195 -27q-5 18 -21.5 32.5t-45.5 14.5q-28 0 -43 -11t-15 -28q0 -5 1 -9.5t4.5 -8t7 -6t10 -5.5t11.5 -5t15 -4.5t16.5 -4.5t20 -5t21.5 -5q98 -24 153.5 -64.5t55.5 -113.5q0 -86 -71 -136q39 -47 39 -115q0 -95 -70 -155.5t-179 -60.5zM212 283q0 -7 2 -12.5
t8 -10t11.5 -7.5t17 -6.5t20 -6t25 -6.5t27.5 -7q38 -9 67 -19q9 13 9 27q0 7 -2.5 12.5t-8 10t-11.5 7.5t-17.5 6.5t-20 6t-25 6.5t-27.5 7q-6 2 -18 5t-24.5 6.5t-23.5 7.5q-9 -10 -9 -27z" />
    <glyph glyph-name="copyright" unicode="&#xa9;" horiz-adv-x="789" 
d="M399 132q-91 0 -155 63.5t-64 154.5t64 154.5t155 63.5q55 0 103 -25.5t78 -69.5l-106 -72q-28 39 -75 39q-37 0 -63.5 -26t-26.5 -64t26.5 -64t63.5 -26q51 0 77 43l107 -72q-30 -45 -78.5 -72t-105.5 -27zM20 350q0 155 109.5 265t264.5 110t265 -110t110 -265
t-110 -264.5t-265 -109.5q-154 0 -264 110t-110 264zM109 350q0 -118 83.5 -201.5t201.5 -83.5t202 83.5t84 201.5t-84 202t-202 84t-201.5 -84t-83.5 -202z" />
    <glyph glyph-name="guillemotleft" unicode="&#xab;" horiz-adv-x="639" 
d="M419 106l-139 192l139 192h190l-139 -192l139 -192h-190zM30 298l139 192h190l-139 -192l139 -192h-190z" />
    <glyph glyph-name="registered" unicode="&#xae;" horiz-adv-x="789" 
d="M394 -24q-154 0 -264 110t-110 264q0 155 109.5 265t264.5 110t265 -110t110 -265t-110 -264.5t-265 -109.5zM109 350q0 -118 83.5 -201.5t201.5 -83.5t202 83.5t84 201.5t-84 202t-202 84t-201.5 -84t-83.5 -202zM229 147v427h156q74 0 121 -39.5t47 -106.5
q0 -79 -63 -119l98 -162h-146l-79 135h-3v-135h-131zM360 396h25q16 0 26 9t10 23t-10 23t-26 9h-25v-64z" />
    <glyph glyph-name="degree" unicode="&#xb0;" horiz-adv-x="412" 
d="M206 354q-77 0 -131.5 55t-54.5 132t54.5 131.5t131.5 54.5t131.5 -54.5t54.5 -131.5t-54.5 -132t-131.5 -55zM153 541q0 -22 15.5 -37.5t37.5 -15.5t37.5 15.5t15.5 37.5t-15.5 37t-37.5 15t-37.5 -15t-15.5 -37z" />
    <glyph glyph-name="plusminus" unicode="&#xb1;" horiz-adv-x="493" 
d="M162 190v86h-112v169h112v85h169v-85h112v-169h-112v-86h-169zM50 0v160h393v-160h-393z" />
    <glyph glyph-name="paragraph" unicode="&#xb6;" horiz-adv-x="640" 
d="M205 307q-84 14 -134.5 66t-50.5 129q0 90 66.5 144t171.5 54h362v-169h-54v-673h-160v673h-41v-673h-160v449z" />
    <glyph glyph-name="guillemotright" unicode="&#xbb;" horiz-adv-x="639" 
d="M280 106l139 192l-139 192h190l139 -192l-139 -192h-190zM30 106l139 192l-139 192h190l139 -192l-139 -192h-190z" />
    <glyph glyph-name="questiondown" unicode="&#xbf;" horiz-adv-x="497" 
d="M254 -205q-92 0 -158 63.5t-66 152.5q0 52 21 93t45.5 62t45.5 45t21 44h187q0 -86 -84 -170l-10.5 -10.5l-9 -9l-7.5 -7.5t-7 -7.5t-5 -6.5t-4.5 -7t-3 -6.5t-2 -6.5t-0.5 -7q0 -13 10 -24t26 -11q18 0 28 13t11 27l185 -22q-10 -81 -71 -143t-152 -62zM150 416
q0 43 30.5 73.5t73.5 30.5t73.5 -30.5t30.5 -73.5t-30.5 -74t-73.5 -31t-73.5 30.5t-30.5 74.5z" />
    <glyph glyph-name="Agrave" unicode="&#xc0;" horiz-adv-x="754" 
d="M0 0l258 700h238l258 -700h-228l-37 112h-224l-37 -112h-228zM200 888h184l66 -138h-146zM321 281h112l-56 171z" />
    <glyph glyph-name="Aacute" unicode="&#xc1;" horiz-adv-x="754" 
d="M0 0l258 700h238l258 -700h-228l-37 112h-224l-37 -112h-228zM312 750l65 138h185l-104 -138h-146zM321 281h112l-56 171z" />
    <glyph glyph-name="Acircumflex" unicode="&#xc2;" horiz-adv-x="754" 
d="M0 0l258 700h238l258 -700h-228l-37 112h-224l-37 -112h-228zM171 750l119 139h173l120 -139h-164l-42 46l-43 -46h-163zM321 281h112l-56 171z" />
    <glyph glyph-name="Atilde" unicode="&#xc3;" horiz-adv-x="754" 
d="M0 0l258 700h238l258 -700h-228l-37 112h-224l-37 -112h-228zM163 779q8 52 40 93.5t82 41.5q35 0 87.5 -25.5t70.5 -25.5q29 0 37 38l112 -43q-10 -56 -42 -94.5t-84 -38.5q-41 0 -90.5 25.5t-62.5 25.5q-29 0 -38 -40zM321 281h112l-56 171z" />
    <glyph glyph-name="Adieresis" unicode="&#xc4;" horiz-adv-x="754" 
d="M0 0l258 700h238l258 -700h-228l-37 112h-224l-37 -112h-228zM179 842q0 36 25 61t61 25t61 -25t25 -61t-25 -61t-61 -25t-61 25t-25 61zM321 281h112l-56 171zM402 842q0 36 25.5 61t61.5 25q35 0 60.5 -25t25.5 -61t-25.5 -61t-60.5 -25q-36 0 -61.5 25t-25.5 61z" />
    <glyph glyph-name="Aring" unicode="&#xc5;" horiz-adv-x="754" 
d="M0 0l258 700h238l258 -700h-228l-37 112h-224l-37 -112h-228zM246 855q0 54 38.5 92t92.5 38t92.5 -38t38.5 -92q0 -55 -38.5 -93t-92.5 -38t-92.5 38t-38.5 93zM321 281h112l-56 171zM344 855q0 -14 9.5 -23.5t23.5 -9.5t23.5 9.5t9.5 23.5q0 13 -10 23t-23 10t-23 -10
t-10 -23z" />
    <glyph glyph-name="AE" unicode="&#xc6;" horiz-adv-x="945" 
d="M0 0l346 700h560v-196h-259v-69h250v-160h-250v-79h268v-196h-482v112h-155l-51 -112h-227zM356 281h77v169z" />
    <glyph glyph-name="Ccedilla" unicode="&#xc7;" horiz-adv-x="698" 
d="M388 -319q-40 0 -80 14t-64 33l58 104q38 -25 69 -25q39 0 39 34q0 13 -7.5 21t-20.5 8q-14 0 -26 -12l-83 50l45 86q-128 23 -213 123.5t-85 232.5q0 150 106.5 255.5t257.5 105.5q92 0 171 -42.5t129 -115.5l-176 -119q-46 66 -124 66q-62 0 -106 -44t-44 -106t44 -106
t106 -44q83 0 127 72l177 -119q-43 -67 -112 -110t-152 -52l-12 -25h8q59 0 98 -34t39 -91q0 -75 -46.5 -117.5t-122.5 -42.5z" />
    <glyph glyph-name="Egrave" unicode="&#xc8;" horiz-adv-x="552" 
d="M40 0v700h473v-196h-259v-69h250v-160h-250v-79h268v-196h-482zM110 888h184l66 -138h-146z" />
    <glyph glyph-name="Eacute" unicode="&#xc9;" horiz-adv-x="552" 
d="M40 0v700h473v-196h-259v-69h250v-160h-250v-79h268v-196h-482zM180 750l65 138h185l-104 -138h-146z" />
    <glyph glyph-name="Ecircumflex" unicode="&#xca;" horiz-adv-x="552" 
d="M40 0v700h473v-196h-259v-69h250v-160h-250v-79h268v-196h-482zM74 750l119 139h173l120 -139h-164l-42 46l-43 -46h-163z" />
    <glyph glyph-name="Edieresis" unicode="&#xcb;" horiz-adv-x="552" 
d="M40 0v700h473v-196h-259v-69h250v-160h-250v-79h268v-196h-482zM83 842q0 36 25 61t61 25t61 -25t25 -61t-25 -61t-61 -25t-61 25t-25 61zM306 842q0 36 25.5 61t61.5 25q35 0 60.5 -25t25.5 -61t-25.5 -61t-60.5 -25q-36 0 -61.5 25t-25.5 61z" />
    <glyph glyph-name="Igrave" unicode="&#xcc;" horiz-adv-x="294" 
d="M40 0v700h214v-700h-214zM-30 888h184l66 -138h-146z" />
    <glyph glyph-name="Iacute" unicode="&#xcd;" horiz-adv-x="294" 
d="M40 0v700h214v-700h-214zM70 750l65 138h185l-104 -138h-146z" />
    <glyph glyph-name="Icircumflex" unicode="&#xce;" horiz-adv-x="294" 
d="M40 0v700h214v-700h-214zM-59 750l119 139h173l120 -139h-164l-42 46l-43 -46h-163z" />
    <glyph glyph-name="Idieresis" unicode="&#xcf;" horiz-adv-x="294" 
d="M40 0v700h214v-700h-214zM-51 842q0 36 25 61t61 25t61 -25t25 -61t-25 -61t-61 -25t-61 25t-25 61zM172 842q0 36 25.5 61t61.5 25q35 0 60.5 -25t25.5 -61t-25.5 -61t-60.5 -25q-36 0 -61.5 25t-25.5 61z" />
    <glyph glyph-name="Eth" unicode="&#xd0;" horiz-adv-x="759" 
d="M101 0v270h-81v160h81v270h245q180 0 286.5 -96.5t106.5 -253.5q0 -156 -106.5 -253t-286.5 -97h-245zM315 196h31q82 0 128.5 41t46.5 113t-46.5 113t-128.5 41h-31v-74h125v-160h-125v-74z" />
    <glyph glyph-name="Ntilde" unicode="&#xd1;" horiz-adv-x="746" 
d="M40 0v700h235l218 -369v369h213v-700h-234l-218 369v-369h-214zM159 779q8 52 40 93.5t82 41.5q35 0 87.5 -25.5t70.5 -25.5q29 0 37 38l112 -43q-10 -56 -42 -94.5t-84 -38.5q-41 0 -90.5 25.5t-62.5 25.5q-29 0 -38 -40z" />
    <glyph glyph-name="Ograve" unicode="&#xd2;" horiz-adv-x="767" 
d="M383 -11q-150 0 -256.5 105.5t-106.5 255.5t106.5 256t256.5 106q151 0 257.5 -105.5t106.5 -256.5q0 -150 -106.5 -255.5t-257.5 -105.5zM199 888h184l66 -138h-146zM234 350q0 -62 44 -106t105 -44q62 0 106 44t44 106t-44 106t-106 44t-105.5 -44t-43.5 -106z" />
    <glyph glyph-name="Oacute" unicode="&#xd3;" horiz-adv-x="767" 
d="M383 -11q-150 0 -256.5 105.5t-106.5 255.5t106.5 256t256.5 106q151 0 257.5 -105.5t106.5 -256.5q0 -150 -106.5 -255.5t-257.5 -105.5zM234 350q0 -62 44 -106t105 -44q62 0 106 44t44 106t-44 106t-106 44t-105.5 -44t-43.5 -106zM309 750l65 138h185l-104 -138h-146
z" />
    <glyph glyph-name="Ocircumflex" unicode="&#xd4;" horiz-adv-x="767" 
d="M383 -11q-150 0 -256.5 105.5t-106.5 255.5t106.5 256t256.5 106q151 0 257.5 -105.5t106.5 -256.5q0 -150 -106.5 -255.5t-257.5 -105.5zM177 750l119 139h173l120 -139h-164l-42 46l-43 -46h-163zM234 350q0 -62 44 -106t105 -44q62 0 106 44t44 106t-44 106t-106 44
t-105.5 -44t-43.5 -106z" />
    <glyph glyph-name="Otilde" unicode="&#xd5;" horiz-adv-x="767" 
d="M383 -11q-150 0 -256.5 105.5t-106.5 255.5t106.5 256t256.5 106q151 0 257.5 -105.5t106.5 -256.5q0 -150 -106.5 -255.5t-257.5 -105.5zM169 779q8 52 40 93.5t82 41.5q35 0 87.5 -25.5t70.5 -25.5q29 0 37 38l112 -43q-10 -56 -42 -94.5t-84 -38.5q-41 0 -90.5 25.5
t-62.5 25.5q-29 0 -38 -40zM234 350q0 -62 44 -106t105 -44q62 0 106 44t44 106t-44 106t-106 44t-105.5 -44t-43.5 -106z" />
    <glyph glyph-name="Odieresis" unicode="&#xd6;" horiz-adv-x="767" 
d="M383 -11q-150 0 -256.5 105.5t-106.5 255.5t106.5 256t256.5 106q151 0 257.5 -105.5t106.5 -256.5q0 -150 -106.5 -255.5t-257.5 -105.5zM185 842q0 36 25 61t61 25t61 -25t25 -61t-25 -61t-61 -25t-61 25t-25 61zM234 350q0 -62 44 -106t105 -44q62 0 106 44t44 106
t-44 106t-106 44t-105.5 -44t-43.5 -106zM408 842q0 36 25.5 61t61.5 25q35 0 60.5 -25t25.5 -61t-25.5 -61t-60.5 -25q-36 0 -61.5 25t-25.5 61z" />
    <glyph glyph-name="multiply" unicode="&#xd7;" horiz-adv-x="477" 
d="M169 90l-139 138l70 70l-70 70l139 138l69 -70l70 70l139 -138l-70 -70l70 -70l-139 -138l-70 69z" />
    <glyph glyph-name="Oslash" unicode="&#xd8;" horiz-adv-x="795" 
d="M110 -17l-100 109l76 71q-52 87 -52 187q0 150 106.5 256t256.5 106q116 0 209 -66l78 72l101 -109l-77 -71q53 -88 53 -188q0 -150 -106.5 -255.5t-257.5 -105.5q-116 0 -209 66zM248 350q0 -19 4 -34l190 177q-20 7 -45 7q-62 0 -105.5 -44t-43.5 -106zM352 208
q20 -7 45 -7q62 0 106 43.5t44 105.5q0 20 -4 35z" />
    <glyph glyph-name="Ugrave" unicode="&#xd9;" horiz-adv-x="706" 
d="M353 -11q-147 0 -230 76t-83 236v399h214v-390q0 -55 26.5 -82.5t72.5 -27.5t72.5 27.5t26.5 82.5v390h214v-399q0 -160 -83 -236t-230 -76zM190 888h184l66 -138h-146z" />
    <glyph glyph-name="Uacute" unicode="&#xda;" horiz-adv-x="706" 
d="M353 -11q-147 0 -230 76t-83 236v399h214v-390q0 -55 26.5 -82.5t72.5 -27.5t72.5 27.5t26.5 82.5v390h214v-399q0 -160 -83 -236t-230 -76zM274 750l65 138h185l-104 -138h-146z" />
    <glyph glyph-name="Ucircumflex" unicode="&#xdb;" horiz-adv-x="706" 
d="M353 -11q-147 0 -230 76t-83 236v399h214v-390q0 -55 26.5 -82.5t72.5 -27.5t72.5 27.5t26.5 82.5v390h214v-399q0 -160 -83 -236t-230 -76zM147 750l119 139h173l120 -139h-164l-42 46l-43 -46h-163z" />
    <glyph glyph-name="Udieresis" unicode="&#xdc;" horiz-adv-x="706" 
d="M353 -11q-147 0 -230 76t-83 236v399h214v-390q0 -55 26.5 -82.5t72.5 -27.5t72.5 27.5t26.5 82.5v390h214v-399q0 -160 -83 -236t-230 -76zM155 842q0 36 25 61t61 25t61 -25t25 -61t-25 -61t-61 -25t-61 25t-25 61zM378 842q0 36 25.5 61t61.5 25q35 0 60.5 -25
t25.5 -61t-25.5 -61t-60.5 -25q-36 0 -61.5 25t-25.5 61z" />
    <glyph glyph-name="Yacute" unicode="&#xdd;" horiz-adv-x="743" 
d="M265 0v297l-265 403h243l128 -218l129 218h243l-265 -403v-297h-213zM291 750l65 138h185l-104 -138h-146z" />
    <glyph glyph-name="Thorn" unicode="&#xde;" horiz-adv-x="609" 
d="M40 0v700h214v-102h50q124 0 204.5 -66t80.5 -182t-80.5 -182t-204.5 -66h-50v-102h-214zM254 289h50q31 0 49.5 16.5t18.5 44.5t-18.5 44.5t-49.5 16.5h-50v-122z" />
    <glyph glyph-name="germandbls" unicode="&#xdf;" horiz-adv-x="593" 
d="M277 169q39 -4 65 10.5t26 47.5q0 57 -84 57h-7v163q26 0 44 13t18 40q0 23 -15.5 37t-39.5 14q-25 0 -41 -18.5t-16 -52.5v-480h-187v480q0 112 71.5 171.5t167.5 59.5q102 0 166 -56.5t64 -137.5q0 -89 -59 -133q113 -55 113 -175q0 -83 -41.5 -137t-104.5 -72t-140 -9
v178z" />
    <glyph glyph-name="agrave" unicode="&#xe0;" horiz-adv-x="622" 
d="M278 -12q-112 0 -185 76t-73 189t73 189t185 76q66 0 118 -35v23h186v-506h-186v23q-52 -35 -118 -35zM167 698h184l66 -138h-146zM207 253q0 -35 24.5 -59.5t59.5 -24.5t59.5 24.5t24.5 59.5t-24.5 59.5t-59.5 24.5t-59.5 -24.5t-24.5 -59.5z" />
    <glyph glyph-name="aacute" unicode="&#xe1;" horiz-adv-x="622" 
d="M278 -12q-112 0 -185 76t-73 189t73 189t185 76q66 0 118 -35v23h186v-506h-186v23q-52 -35 -118 -35zM203 560l65 138h185l-104 -138h-146zM207 253q0 -35 24.5 -59.5t59.5 -24.5t59.5 24.5t24.5 59.5t-24.5 59.5t-59.5 24.5t-59.5 -24.5t-24.5 -59.5z" />
    <glyph glyph-name="acircumflex" unicode="&#xe2;" horiz-adv-x="622" 
d="M278 -12q-112 0 -185 76t-73 189t73 189t185 76q66 0 118 -35v23h186v-506h-186v23q-52 -35 -118 -35zM110 560l119 139h173l120 -139h-164l-42 46l-43 -46h-163zM207 253q0 -35 24.5 -59.5t59.5 -24.5t59.5 24.5t24.5 59.5t-24.5 59.5t-59.5 24.5t-59.5 -24.5
t-24.5 -59.5z" />
    <glyph glyph-name="atilde" unicode="&#xe3;" horiz-adv-x="622" 
d="M278 -12q-112 0 -185 76t-73 189t73 189t185 76q66 0 118 -35v23h186v-506h-186v23q-52 -35 -118 -35zM96 596q8 52 40 93.5t82 41.5q35 0 87.5 -25.5t70.5 -25.5q29 0 37 38l112 -43q-10 -56 -42 -94.5t-84 -38.5q-41 0 -90.5 25.5t-62.5 25.5q-29 0 -38 -40zM207 253
q0 -35 24.5 -59.5t59.5 -24.5t59.5 24.5t24.5 59.5t-24.5 59.5t-59.5 24.5t-59.5 -24.5t-24.5 -59.5z" />
    <glyph glyph-name="adieresis" unicode="&#xe4;" horiz-adv-x="622" 
d="M278 -12q-112 0 -185 76t-73 189t73 189t185 76q66 0 118 -35v23h186v-506h-186v23q-52 -35 -118 -35zM120 642q0 36 25 61t61 25t61 -25t25 -61t-25 -61t-61 -25t-61 25t-25 61zM207 253q0 -35 24.5 -59.5t59.5 -24.5t59.5 24.5t24.5 59.5t-24.5 59.5t-59.5 24.5
t-59.5 -24.5t-24.5 -59.5zM343 642q0 36 25.5 61t61.5 25q35 0 60.5 -25t25.5 -61t-25.5 -61t-60.5 -25q-36 0 -61.5 25t-25.5 61z" />
    <glyph glyph-name="aring" unicode="&#xe5;" horiz-adv-x="622" 
d="M278 -12q-112 0 -185 76t-73 189t73 189t185 76q66 0 118 -35v23h186v-506h-186v23q-52 -35 -118 -35zM164 676q0 54 38.5 92t92.5 38t92.5 -38t38.5 -92q0 -55 -38.5 -93t-92.5 -38t-92.5 38t-38.5 93zM207 253q0 -35 24.5 -59.5t59.5 -24.5t59.5 24.5t24.5 59.5
t-24.5 59.5t-59.5 24.5t-59.5 -24.5t-24.5 -59.5zM262 676q0 -14 9.5 -23.5t23.5 -9.5t23.5 9.5t9.5 23.5t-10 23.5t-23 9.5t-23 -9.5t-10 -23.5z" />
    <glyph glyph-name="ae" unicode="&#xe6;" horiz-adv-x="1037" 
d="M278 -11q-112 0 -185 76t-73 189t73 189t185 76q84 0 136 -57v45h186v-41q63 53 143 53q56 0 108.5 -23t92.5 -63t59.5 -101.5t10.5 -131.5h-360q29 -57 104 -57q64 0 98 42l140 -63q-32 -60 -94.5 -96.5t-143.5 -36.5q-96 0 -158 51v-40h-186v45q-53 -56 -136 -56z
M207 254q0 -35 24.5 -60t59.5 -25t59.5 25t24.5 60t-24.5 59.5t-59.5 24.5t-59.5 -25t-24.5 -59zM655 307h182q-28 58 -94 58q-58 0 -88 -58z" />
    <glyph glyph-name="ccedilla" unicode="&#xe7;" horiz-adv-x="549" 
d="M285 -319q-41 0 -81 14t-63 33l58 104q37 -25 69 -25q20 0 29.5 10t9.5 24q0 13 -7.5 21t-20.5 8q-14 0 -26 -12l-83 50l47 90q-87 24 -142 93.5t-55 161.5q0 112 79 188.5t192 76.5q82 0 149 -43t99 -114l-168 -82q-8 26 -30.5 42.5t-49.5 16.5q-35 0 -59.5 -25
t-24.5 -60t24.5 -59.5t59.5 -24.5q27 0 49.5 16.5t30.5 42.5l168 -82q-29 -64 -87 -106.5t-131 -49.5l-12 -24h8q59 0 98 -34t39 -91q0 -75 -46.5 -117.5t-122.5 -42.5z" />
    <glyph glyph-name="egrave" unicode="&#xe8;" horiz-adv-x="585" 
d="M305 -12q-129 0 -207 75.5t-78 189.5q0 112 79 188.5t192 76.5q56 0 108.5 -23t92 -63t59.5 -101t11 -131h-360q30 -58 103 -58q66 0 99 43l139 -64q-31 -59 -94 -96t-144 -37zM117 698h184l66 -138h-146zM203 306h182q-27 58 -94 58q-59 0 -88 -58z" />
    <glyph glyph-name="eacute" unicode="&#xe9;" horiz-adv-x="585" 
d="M305 -12q-129 0 -207 75.5t-78 189.5q0 112 79 188.5t192 76.5q56 0 108.5 -23t92 -63t59.5 -101t11 -131h-360q30 -58 103 -58q66 0 99 43l139 -64q-31 -59 -94 -96t-144 -37zM196 560l65 138h185l-104 -138h-146zM203 306h182q-27 58 -94 58q-59 0 -88 -58z" />
    <glyph glyph-name="ecircumflex" unicode="&#xea;" horiz-adv-x="585" 
d="M305 -12q-129 0 -207 75.5t-78 189.5q0 112 79 188.5t192 76.5q56 0 108.5 -23t92 -63t59.5 -101t11 -131h-360q30 -58 103 -58q66 0 99 43l139 -64q-31 -59 -94 -96t-144 -37zM86 560l119 139h173l120 -139h-164l-42 46l-43 -46h-163zM203 306h182q-27 58 -94 58
q-59 0 -88 -58z" />
    <glyph glyph-name="edieresis" unicode="&#xeb;" horiz-adv-x="585" 
d="M305 -12q-129 0 -207 75.5t-78 189.5q0 112 79 188.5t192 76.5q56 0 108.5 -23t92 -63t59.5 -101t11 -131h-360q30 -58 103 -58q66 0 99 43l139 -64q-31 -59 -94 -96t-144 -37zM94 642q0 36 25 61t61 25t61 -25t25 -61t-25 -61t-61 -25t-61 25t-25 61zM203 306h182
q-27 58 -94 58q-59 0 -88 -58zM317 642q0 36 25.5 61t61.5 25q35 0 60.5 -25t25.5 -61t-25.5 -61t-60.5 -25q-36 0 -61.5 25t-25.5 61z" />
    <glyph glyph-name="igrave" unicode="&#xec;" horiz-adv-x="271" 
d="M42 0v506h187v-506h-187zM-43 698h184l66 -138h-146z" />
    <glyph glyph-name="iacute" unicode="&#xed;" horiz-adv-x="271" 
d="M42 0v506h187v-506h-187zM57 560l65 138h185l-104 -138h-146z" />
    <glyph glyph-name="icircumflex" unicode="&#xee;" horiz-adv-x="271" 
d="M42 0v506h187v-506h-187zM-71 560l119 139h173l120 -139h-164l-42 46l-43 -46h-163z" />
    <glyph glyph-name="idieresis" unicode="&#xef;" horiz-adv-x="271" 
d="M42 0v506h187v-506h-187zM-63 642q0 36 25 61t61 25t61 -25t25 -61t-25 -61t-61 -25t-61 25t-25 61zM160 642q0 36 25.5 61t61.5 25q35 0 60.5 -25t25.5 -61t-25.5 -61t-60.5 -25q-36 0 -61.5 25t-25.5 61z" />
    <glyph glyph-name="eth" unicode="&#xf0;" horiz-adv-x="562" 
d="M281 -11q-108 0 -184.5 76.5t-76.5 183.5t76 179.5t185 72.5q20 0 30 -1q-26 39 -58 69l-101 -70l-68 98l66 46q-46 25 -96 40l50 127q92 -30 170 -80l106 74l68 -98l-77 -54q82 -82 126.5 -185.5t44.5 -217.5q0 -107 -76.5 -183.5t-184.5 -76.5zM207 249
q0 -30 21.5 -51.5t52.5 -21.5t52.5 21.5t21.5 51.5q0 31 -21.5 52.5t-52.5 21.5t-52.5 -21.5t-21.5 -52.5z" />
    <glyph glyph-name="ntilde" unicode="&#xf1;" horiz-adv-x="619" 
d="M40 0v506h187v-35q53 47 137 47q104 0 159.5 -71.5t55.5 -175.5v-271h-187v253q0 34 -22.5 60.5t-59.5 26.5t-60 -25t-23 -64v-251h-187zM80 596q8 52 40 93.5t82 41.5q35 0 87.5 -25.5t70.5 -25.5q29 0 37 38l112 -43q-10 -56 -42 -94.5t-84 -38.5q-41 0 -90.5 25.5
t-62.5 25.5q-29 0 -38 -40z" />
    <glyph glyph-name="ograve" unicode="&#xf2;" horiz-adv-x="582" 
d="M291 -12q-112 0 -191.5 77t-79.5 188q0 112 79 188.5t192 76.5t192 -76.5t79 -188.5q0 -111 -79 -188t-192 -77zM110 698h184l66 -138h-146zM207 253q0 -35 24.5 -59.5t59.5 -24.5t59.5 24.5t24.5 59.5t-24.5 59.5t-59.5 24.5t-59.5 -24.5t-24.5 -59.5z" />
    <glyph glyph-name="oacute" unicode="&#xf3;" horiz-adv-x="582" 
d="M291 -12q-112 0 -191.5 77t-79.5 188q0 112 79 188.5t192 76.5t192 -76.5t79 -188.5q0 -111 -79 -188t-192 -77zM207 253q0 -35 24.5 -59.5t59.5 -24.5t59.5 24.5t24.5 59.5t-24.5 59.5t-59.5 24.5t-59.5 -24.5t-24.5 -59.5zM210 560l65 138h185l-104 -138h-146z" />
    <glyph glyph-name="ocircumflex" unicode="&#xf4;" horiz-adv-x="582" 
d="M291 -12q-112 0 -191.5 77t-79.5 188q0 112 79 188.5t192 76.5t192 -76.5t79 -188.5q0 -111 -79 -188t-192 -77zM85 560l119 139h173l120 -139h-164l-42 46l-43 -46h-163zM207 253q0 -35 24.5 -59.5t59.5 -24.5t59.5 24.5t24.5 59.5t-24.5 59.5t-59.5 24.5t-59.5 -24.5
t-24.5 -59.5z" />
    <glyph glyph-name="otilde" unicode="&#xf5;" horiz-adv-x="582" 
d="M291 -12q-112 0 -191.5 77t-79.5 188q0 112 79 188.5t192 76.5t192 -76.5t79 -188.5q0 -111 -79 -188t-192 -77zM72 596q8 52 40 93.5t82 41.5q35 0 87.5 -25.5t70.5 -25.5q29 0 37 38l112 -43q-10 -56 -42 -94.5t-84 -38.5q-41 0 -90.5 25.5t-62.5 25.5q-29 0 -38 -40z
M207 253q0 -35 24.5 -59.5t59.5 -24.5t59.5 24.5t24.5 59.5t-24.5 59.5t-59.5 24.5t-59.5 -24.5t-24.5 -59.5z" />
    <glyph glyph-name="odieresis" unicode="&#xf6;" horiz-adv-x="582" 
d="M291 -12q-112 0 -191.5 77t-79.5 188q0 112 79 188.5t192 76.5t192 -76.5t79 -188.5q0 -111 -79 -188t-192 -77zM93 642q0 36 25 61t61 25t61 -25t25 -61t-25 -61t-61 -25t-61 25t-25 61zM207 253q0 -35 24.5 -59.5t59.5 -24.5t59.5 24.5t24.5 59.5t-24.5 59.5
t-59.5 24.5t-59.5 -24.5t-24.5 -59.5zM316 642q0 36 25.5 61t61.5 25q35 0 60.5 -25t25.5 -61t-25.5 -61t-60.5 -25q-36 0 -61.5 25t-25.5 61z" />
    <glyph glyph-name="divide" unicode="&#xf7;" horiz-adv-x="509" 
d="M40 213v170h429v-170h-429zM162 101q0 38 27 65t65 27t65.5 -27t27.5 -65t-27.5 -65t-65.5 -27t-65 27t-27 65zM162 495q0 38 27 65t65 27t65.5 -27t27.5 -65t-27.5 -65t-65.5 -27t-65 27t-27 65z" />
    <glyph glyph-name="oslash" unicode="&#xf8;" horiz-adv-x="620" 
d="M71 -29l-61 65l74 69q-45 65 -45 149q0 111 79 188t192 77q91 0 163 -53l76 70l61 -65l-75 -69q46 -67 46 -148q0 -112 -79 -188.5t-192 -76.5q-92 0 -163 52zM226 254q0 -11 1 -16l105 97q-11 3 -22 3q-35 0 -59.5 -24.5t-24.5 -59.5zM288 172q10 -3 22 -3q35 0 59.5 25
t24.5 60q0 10 -1 16z" />
    <glyph glyph-name="ugrave" unicode="&#xf9;" horiz-adv-x="618" 
d="M255 -12q-105 0 -160 71.5t-55 176.5v271h186v-254q0 -34 22.5 -60.5t59.5 -26.5t60 25.5t23 63.5v252h187v-507h-187v35q-55 -47 -136 -47zM145 698h184l66 -138h-146z" />
    <glyph glyph-name="uacute" unicode="&#xfa;" horiz-adv-x="618" 
d="M255 -12q-105 0 -160 71.5t-55 176.5v271h186v-254q0 -34 22.5 -60.5t59.5 -26.5t60 25.5t23 63.5v252h187v-507h-187v35q-55 -47 -136 -47zM221 560l65 138h185l-104 -138h-146z" />
    <glyph glyph-name="ucircumflex" unicode="&#xfb;" horiz-adv-x="618" 
d="M255 -12q-105 0 -160 71.5t-55 176.5v271h186v-254q0 -34 22.5 -60.5t59.5 -26.5t60 25.5t23 63.5v252h187v-507h-187v35q-55 -47 -136 -47zM103 560l119 139h173l120 -139h-164l-42 46l-43 -46h-163z" />
    <glyph glyph-name="udieresis" unicode="&#xfc;" horiz-adv-x="618" 
d="M255 -12q-105 0 -160 71.5t-55 176.5v271h186v-254q0 -34 22.5 -60.5t59.5 -26.5t60 25.5t23 63.5v252h187v-507h-187v35q-55 -47 -136 -47zM111 642q0 36 25 61t61 25t61 -25t25 -61t-25 -61t-61 -25t-61 25t-25 61zM334 642q0 36 25.5 61t61.5 25q35 0 60.5 -25
t25.5 -61t-25.5 -61t-60.5 -25q-36 0 -61.5 25t-25.5 61z" />
    <glyph glyph-name="yacute" unicode="&#xfd;" horiz-adv-x="603" 
d="M93 -238l108 265l-201 480h205l94 -243l99 243h205l-312 -745h-198zM228 560l65 138h185l-104 -138h-146z" />
    <glyph glyph-name="thorn" unicode="&#xfe;" horiz-adv-x="622" 
d="M40 -238v983h187v-261q53 35 117 35q112 0 185 -76t73 -189t-73 -189t-185 -76q-65 0 -117 34v-261h-187zM247 254q0 -35 24.5 -60t59.5 -25t59.5 25t24.5 60t-24.5 59.5t-59.5 24.5t-59.5 -25t-24.5 -59z" />
    <glyph glyph-name="ydieresis" unicode="&#xff;" horiz-adv-x="603" 
d="M93 -238l108 265l-201 480h205l94 -243l99 243h205l-312 -745h-198zM103 642q0 36 25 61t61 25t61 -25t25 -61t-25 -61t-61 -25t-61 25t-25 61zM326 642q0 36 25.5 61t61.5 25q35 0 60.5 -25t25.5 -61t-25.5 -61t-60.5 -25q-36 0 -61.5 25t-25.5 61z" />
    <glyph glyph-name="Amacron" unicode="&#x100;" horiz-adv-x="754" 
d="M0 0l258 700h238l258 -700h-228l-37 112h-224l-37 -112h-228zM242 748v142h271v-142h-271zM321 281h112l-56 171z" />
    <glyph glyph-name="amacron" unicode="&#x101;" horiz-adv-x="622" 
d="M278 -12q-112 0 -185 76t-73 189t73 189t185 76q66 0 118 -35v23h186v-506h-186v23q-52 -35 -118 -35zM170 558v142h271v-142h-271zM207 253q0 -35 24.5 -59.5t59.5 -24.5t59.5 24.5t24.5 59.5t-24.5 59.5t-59.5 24.5t-59.5 -24.5t-24.5 -59.5z" />
    <glyph glyph-name="Abreve" unicode="&#x102;" horiz-adv-x="754" 
d="M0 0l258 700h238l258 -700h-228l-37 112h-224l-37 -112h-228zM181 910h142q0 -24 14 -40t40 -16q25 0 39.5 16t14.5 40h142q0 -82 -57.5 -130t-138.5 -48q-82 0 -139 47.5t-57 130.5zM321 281h112l-56 171z" />
    <glyph glyph-name="abreve" unicode="&#x103;" horiz-adv-x="622" 
d="M278 -12q-112 0 -185 76t-73 189t73 189t185 76q66 0 118 -35v23h186v-506h-186v23q-52 -35 -118 -35zM110 730h142q0 -24 14 -40t40 -16q25 0 39.5 16t14.5 40h142q0 -82 -57.5 -130t-138.5 -48q-82 0 -139 47.5t-57 130.5zM207 253q0 -35 24.5 -59.5t59.5 -24.5
t59.5 24.5t24.5 59.5t-24.5 59.5t-59.5 24.5t-59.5 -24.5t-24.5 -59.5z" />
    <glyph glyph-name="Aogonek" unicode="&#x104;" horiz-adv-x="754" 
d="M771 -301q-40 -12 -84.5 -8.5t-82 17t-62 47t-24.5 80.5q0 87 107 165h-99l-37 112h-224l-37 -112h-228l257 700h239l258 -700q-33 -25 -52 -47t-19 -50q0 -37 28.5 -47.5t59.5 -4.5v-152zM320 281h113l-56 171z" />
    <glyph glyph-name="aogonek" unicode="&#x105;" horiz-adv-x="622" 
d="M600 -301q-40 -12 -84.5 -8.5t-82 17t-62 47t-24.5 80.5q0 87 107 165h-58v23q-52 -35 -118 -35q-112 0 -185 76t-73 189t73 189t185 76q66 0 118 -35v24h187v-507q-33 -25 -52 -47t-19 -50q0 -37 28.5 -47.5t59.5 -4.5v-152zM207 253q0 -35 24.5 -59.5t59.5 -24.5
t60 24.5t25 59.5t-25 60t-60 25t-59.5 -25t-24.5 -60z" />
    <glyph glyph-name="Cacute" unicode="&#x106;" horiz-adv-x="698" 
d="M383 -11q-150 0 -256.5 105.5t-106.5 255.5t106.5 256t256.5 106q92 0 171.5 -43t129.5 -116l-177 -119q-45 66 -124 66q-62 0 -106 -44t-44 -106t44 -106t106 -44q83 0 128 73l177 -120q-50 -76 -130.5 -120t-174.5 -44zM270 750l65 138h185l-104 -138h-146z" />
    <glyph glyph-name="cacute" unicode="&#x107;" horiz-adv-x="550" 
d="M291 -12q-112 0 -191.5 77t-79.5 188q0 112 79 188.5t192 76.5q82 0 149.5 -43.5t99.5 -114.5l-169 -81q-8 26 -30 42t-50 16q-35 0 -59.5 -24.5t-24.5 -59.5t24.5 -59.5t59.5 -24.5q28 0 50 16.5t30 41.5l169 -81q-32 -71 -99.5 -114.5t-149.5 -43.5zM185 560l65 138
h185l-104 -138h-146z" />
    <glyph glyph-name="ccircumflex" unicode="&#x109;" horiz-adv-x="550" 
d="M291 -12q-112 0 -191.5 77t-79.5 188q0 112 79 188.5t192 76.5q82 0 149.5 -43.5t99.5 -114.5l-169 -81q-8 26 -30 42t-50 16q-35 0 -59.5 -24.5t-24.5 -59.5t24.5 -59.5t59.5 -24.5q28 0 50 16.5t30 41.5l169 -81q-32 -71 -99.5 -114.5t-149.5 -43.5zM68 560l119 139
h173l120 -139h-164l-42 46l-43 -46h-163z" />
    <glyph glyph-name="Cdotaccent" unicode="&#x10a;" horiz-adv-x="698" 
d="M383 -11q-150 0 -256.5 105.5t-106.5 255.5t106.5 256t256.5 106q92 0 171.5 -43t129.5 -116l-177 -119q-45 66 -124 66q-62 0 -106 -44t-44 -106t44 -106t106 -44q83 0 128 73l177 -120q-50 -76 -130.5 -120t-174.5 -44zM280 842q0 36 25.5 61t61.5 25q35 0 60.5 -25
t25.5 -61t-25.5 -61t-60.5 -25q-36 0 -61.5 25t-25.5 61z" />
    <glyph glyph-name="cdotaccent" unicode="&#x10b;" horiz-adv-x="550" 
d="M291 -12q-112 0 -191.5 77t-79.5 188q0 112 79 188.5t192 76.5q82 0 149.5 -43.5t99.5 -114.5l-169 -81q-8 26 -30 42t-50 16q-35 0 -59.5 -24.5t-24.5 -59.5t24.5 -59.5t59.5 -24.5q28 0 50 16.5t30 41.5l169 -81q-32 -71 -99.5 -114.5t-149.5 -43.5zM193 642
q0 36 25.5 61t61.5 25q35 0 60.5 -25t25.5 -61t-25.5 -61t-60.5 -25q-36 0 -61.5 25t-25.5 61z" />
    <glyph glyph-name="Ccaron" unicode="&#x10c;" horiz-adv-x="698" 
d="M383 -11q-150 0 -256.5 105.5t-106.5 255.5t106.5 256t256.5 106q92 0 171.5 -43t129.5 -116l-177 -119q-45 66 -124 66q-62 0 -106 -44t-44 -106t44 -106t106 -44q83 0 128 73l177 -120q-50 -76 -130.5 -120t-174.5 -44zM160 889h163l43 -46l43 46h163l-120 -139h-172z
" />
    <glyph glyph-name="ccaron" unicode="&#x10d;" horiz-adv-x="550" 
d="M291 -12q-112 0 -191.5 77t-79.5 188q0 112 79 188.5t192 76.5q82 0 149.5 -43.5t99.5 -114.5l-169 -81q-8 26 -30 42t-50 16q-35 0 -59.5 -24.5t-24.5 -59.5t24.5 -59.5t59.5 -24.5q28 0 50 16.5t30 41.5l169 -81q-32 -71 -99.5 -114.5t-149.5 -43.5zM73 699h163l43 -46
l43 46h163l-120 -139h-172z" />
    <glyph glyph-name="Dcaron" unicode="&#x10e;" horiz-adv-x="698" 
d="M40 0v700h245q180 0 286.5 -96.5t106.5 -253.5q0 -156 -106.5 -253t-286.5 -97h-245zM70 889h163l43 -46l43 46h163l-120 -139h-172zM254 196h31q82 0 128.5 41t46.5 113t-46.5 113t-128.5 41h-31v-308z" />
    <glyph glyph-name="dcaron" unicode="&#x10f;" horiz-adv-x="622" 
d="M277 -12q-111 0 -184 76t-73 189t73 189t184 76q67 0 118 -35v261h187v-744h-187v23q-51 -35 -118 -35zM207 253q0 -35 24.5 -59.5t59.5 -24.5t59.5 24.5t24.5 59.5t-24.5 59.5t-59.5 24.5t-59.5 -24.5t-24.5 -59.5zM614 561l69 183h177l-94 -183h-152z" />
    <glyph glyph-name="Dcroat" unicode="&#x110;" horiz-adv-x="759" 
d="M101 0v270h-81v160h81v270h245q180 0 286.5 -96.5t106.5 -253.5q0 -156 -106.5 -253t-286.5 -97h-245zM315 196h31q82 0 128.5 41t46.5 113t-46.5 113t-128.5 41h-31v-74h125v-160h-125v-74z" />
    <glyph glyph-name="dcroat" unicode="&#x111;" horiz-adv-x="671" 
d="M278 -11q-111 0 -184.5 76t-73.5 189q0 112 73.5 188.5t184.5 76.5q63 0 118 -35v75h-116v124h116v62h187v-62h78v-124h-78v-559h-187v23q-53 -34 -118 -34zM207 254q0 -35 25 -60t60 -25t59.5 25t24.5 60q0 34 -25 59t-59 25q-35 0 -60 -24.5t-25 -59.5z" />
    <glyph glyph-name="Emacron" unicode="&#x112;" horiz-adv-x="552" 
d="M40 0v700h473v-196h-259v-69h250v-160h-250v-79h268v-196h-482zM145 748v142h271v-142h-271z" />
    <glyph glyph-name="emacron" unicode="&#x113;" horiz-adv-x="585" 
d="M305 -12q-129 0 -207 75.5t-78 189.5q0 112 79 188.5t192 76.5q56 0 108.5 -23t92 -63t59.5 -101t11 -131h-360q30 -58 103 -58q66 0 99 43l139 -64q-31 -59 -94 -96t-144 -37zM157 558v142h271v-142h-271zM203 306h182q-27 58 -94 58q-59 0 -88 -58z" />
    <glyph glyph-name="Edotaccent" unicode="&#x116;" horiz-adv-x="552" 
d="M40 0v700h473v-196h-259v-69h250v-160h-250v-79h268v-196h-482zM195 842q0 36 25.5 61t61.5 25q35 0 60.5 -25t25.5 -61t-25.5 -61t-60.5 -25q-36 0 -61.5 25t-25.5 61z" />
    <glyph glyph-name="edotaccent" unicode="&#x117;" horiz-adv-x="585" 
d="M305 -12q-129 0 -207 75.5t-78 189.5q0 112 79 188.5t192 76.5q56 0 108.5 -23t92 -63t59.5 -101t11 -131h-360q30 -58 103 -58q66 0 99 43l139 -64q-31 -59 -94 -96t-144 -37zM203 306h182q-27 58 -94 58q-59 0 -88 -58zM206 642q0 36 25.5 61t61.5 25q35 0 60.5 -25
t25.5 -61t-25.5 -61t-60.5 -25q-36 0 -61.5 25t-25.5 61z" />
    <glyph glyph-name="Eogonek" unicode="&#x118;" horiz-adv-x="552" 
d="M538 -301q-39 -12 -83.5 -8.5t-82 17t-62 47t-24.5 80.5q0 87 107 165h-353v700h473v-196h-260v-70h251v-160h-251v-78h269v-196q-72 -52 -72 -97q0 -37 28.5 -47.5t59.5 -4.5v-152z" />
    <glyph glyph-name="eogonek" unicode="&#x119;" horiz-adv-x="585" 
d="M447 -301q-39 -12 -83.5 -8.5t-82 17t-62.5 47t-25 80.5q0 82 93 154q-122 6 -194.5 80t-72.5 184q0 112 79 188.5t192 76.5q56 0 108.5 -22.5t92.5 -62.5t59.5 -101.5t10.5 -131.5h-360q30 -58 103 -58q62 0 99 43l139 -64q-33 -63 -98 -99q-31 -19 -58.5 -53.5
t-27.5 -65.5q0 -37 28.5 -47.5t59.5 -4.5v-152zM203 307h182q-28 57 -94 57q-59 0 -88 -57z" />
    <glyph glyph-name="Ecaron" unicode="&#x11a;" horiz-adv-x="552" 
d="M40 0v700h473v-196h-259v-69h250v-160h-250v-79h268v-196h-482zM74 889h163l43 -46l43 46h163l-120 -139h-172z" />
    <glyph glyph-name="ecaron" unicode="&#x11b;" horiz-adv-x="585" 
d="M305 -12q-129 0 -207 75.5t-78 189.5q0 112 79 188.5t192 76.5q56 0 108.5 -23t92 -63t59.5 -101t11 -131h-360q30 -58 103 -58q66 0 99 43l139 -64q-31 -59 -94 -96t-144 -37zM86 699h163l43 -46l43 46h163l-120 -139h-172zM203 306h182q-27 58 -94 58q-59 0 -88 -58z
" />
    <glyph glyph-name="gcircumflex" unicode="&#x11d;" horiz-adv-x="623" 
d="M299 -238q-89 0 -161 38t-100 96l141 81q11 -17 39.5 -34.5t71.5 -17.5q58 0 82 29.5t24 72.5v4q-52 -34 -118 -34q-112 0 -185 72t-73 184q0 113 73.5 189t184.5 76q66 0 118 -36v24h187v-479q0 -127 -77 -196t-207 -69zM110 560l119 139h173l120 -139h-164l-42 46
l-43 -46h-163zM207 253q0 -35 25 -59.5t60 -24.5q34 0 59 24.5t25 59.5t-24.5 59.5t-59.5 24.5t-60 -24.5t-25 -59.5z" />
    <glyph glyph-name="Gbreve" unicode="&#x11e;" horiz-adv-x="761" 
d="M383 -11q-150 0 -256.5 105.5t-106.5 255.5t106.5 256t256.5 106q92 0 171.5 -43t129.5 -116l-177 -119q-45 66 -124 66q-62 0 -106 -44.5t-44 -105.5q0 -67 41 -112.5t109 -45.5q92 0 127 74h-162v151h391q7 -104 -16 -186t-71.5 -134.5t-116.5 -80t-152 -27.5zM184 910
h142q0 -24 14 -40t40 -16q25 0 39.5 16t14.5 40h142q0 -82 -57.5 -130t-138.5 -48q-82 0 -139 47.5t-57 130.5z" />
    <glyph glyph-name="gbreve" unicode="&#x11f;" horiz-adv-x="623" 
d="M299 -238q-89 0 -161 38t-100 96l141 81q11 -17 39.5 -34.5t71.5 -17.5q58 0 82 29.5t24 72.5v4q-52 -34 -118 -34q-112 0 -185 72t-73 184q0 113 73.5 189t184.5 76q66 0 118 -36v24h187v-479q0 -127 -77 -196t-207 -69zM111 730h142q0 -24 14 -40t40 -16q25 0 39.5 16
t14.5 40h142q0 -82 -57.5 -130t-138.5 -48q-82 0 -139 47.5t-57 130.5zM207 253q0 -35 25 -59.5t60 -24.5q34 0 59 24.5t25 59.5t-24.5 59.5t-59.5 24.5t-60 -24.5t-25 -59.5z" />
    <glyph glyph-name="Gdotaccent" unicode="&#x120;" horiz-adv-x="761" 
d="M383 -11q-150 0 -256.5 105.5t-106.5 255.5t106.5 256t256.5 106q92 0 171.5 -43t129.5 -116l-177 -119q-45 66 -124 66q-62 0 -106 -44.5t-44 -105.5q0 -67 41 -112.5t109 -45.5q92 0 127 74h-162v151h391q7 -104 -16 -186t-71.5 -134.5t-116.5 -80t-152 -27.5zM294 842
q0 36 25.5 61t61.5 25q35 0 60.5 -25t25.5 -61t-25.5 -61t-60.5 -25q-36 0 -61.5 25t-25.5 61z" />
    <glyph glyph-name="gdotaccent" unicode="&#x121;" horiz-adv-x="623" 
d="M299 -238q-89 0 -161 38t-100 96l141 81q11 -17 39.5 -34.5t71.5 -17.5q58 0 82 29.5t24 72.5v4q-52 -34 -118 -34q-112 0 -185 72t-73 184q0 113 73.5 189t184.5 76q66 0 118 -36v24h187v-479q0 -127 -77 -196t-207 -69zM206 642q0 36 25.5 61t61.5 25q35 0 60.5 -25
t25.5 -61t-25.5 -61t-60.5 -25q-36 0 -61.5 25t-25.5 61zM207 253q0 -35 25 -59.5t60 -24.5q34 0 59 24.5t25 59.5t-24.5 59.5t-59.5 24.5t-60 -24.5t-25 -59.5z" />
    <glyph glyph-name="uni0122" unicode="&#x122;" horiz-adv-x="761" 
d="M383 -11q-150 0 -256.5 105.5t-106.5 255.5t106.5 256t256.5 106q92 0 171.5 -43t129.5 -116l-177 -119q-45 66 -124 66q-62 0 -106 -44.5t-44 -105.5q0 -67 41 -112.5t109 -45.5q92 0 127 74h-162v151h391q7 -104 -16 -186t-71.5 -134.5t-116.5 -80t-152 -27.5z
M227 -239l69 183h177l-94 -183h-152z" />
    <glyph glyph-name="uni0123" unicode="&#x123;" horiz-adv-x="623" 
d="M299 -238q-89 0 -161 38t-100 96l141 81q11 -17 39.5 -34.5t71.5 -17.5q58 0 82 29.5t24 72.5v4q-52 -34 -118 -34q-112 0 -185 72t-73 184q0 113 73.5 189t184.5 76q66 0 118 -36v24h187v-479q0 -127 -77 -196t-207 -69zM199 560l104 138h146l-65 -138h-185zM207 253
q0 -35 25 -59.5t60 -24.5q34 0 59 24.5t25 59.5t-24.5 59.5t-59.5 24.5t-60 -24.5t-25 -59.5z" />
    <glyph glyph-name="hcircumflex" unicode="&#x125;" horiz-adv-x="619" 
d="M40 0v744h187v-273q53 47 137 47q104 0 159.5 -71.5t55.5 -175.5v-271h-187v253q0 35 -22 61t-59 26q-38 0 -61 -25t-23 -64v-251h-187zM104 790l119 139h173l120 -139h-164l-42 46l-43 -46h-163z" />
    <glyph glyph-name="Hbar" unicode="&#x126;" horiz-adv-x="812" 
d="M78 0v498h-58v143h58v59h213v-59h230v59h214v-59h57v-143h-57v-498h-214v252h-230v-252h-213zM291 448h230v50h-230v-50z" />
    <glyph glyph-name="hbar" unicode="&#x127;" horiz-adv-x="644" 
d="M75 0v559h-65v124h65v62h187v-62h129v-124h-129v-87q55 47 137 47q104 0 159.5 -71.5t55.5 -176.5v-271h-187v254q0 34 -22.5 60.5t-59.5 26.5t-60 -25.5t-23 -63.5v-252h-187z" />
    <glyph glyph-name="itilde" unicode="&#x129;" horiz-adv-x="271" 
d="M42 0v506h187v-506h-187zM-79 596q8 52 40 93.5t82 41.5q35 0 87.5 -25.5t70.5 -25.5q29 0 37 38l112 -43q-10 -56 -42 -94.5t-84 -38.5q-41 0 -90.5 25.5t-62.5 25.5q-29 0 -38 -40z" />
    <glyph glyph-name="Imacron" unicode="&#x12a;" horiz-adv-x="294" 
d="M40 0v700h214v-700h-214zM12 748v142h271v-142h-271z" />
    <glyph glyph-name="imacron" unicode="&#x12b;" horiz-adv-x="271" 
d="M42 0v506h187v-506h-187zM0 558v142h271v-142h-271z" />
    <glyph glyph-name="Iogonek" unicode="&#x12e;" horiz-adv-x="294" 
d="M271 -301q-40 -12 -84.5 -8.5t-82 17t-62 47t-24.5 80.5q0 85 107 165h-85v700h214v-700q-33 -25 -52 -47t-19 -50q0 -37 28.5 -47.5t59.5 -4.5v-152z" />
    <glyph glyph-name="iogonek" unicode="&#x12f;" horiz-adv-x="272" 
d="M246 -301q-40 -12 -84.5 -8.5t-82 17t-62 47t-24.5 80.5q0 87 108 165h-59v507h187v-507q-33 -25 -52 -47t-19 -50q0 -37 28.5 -47.5t59.5 -4.5v-152zM34 655q0 42 30 71.5t72 29.5t71.5 -29.5t29.5 -71.5t-29.5 -72t-71.5 -30t-72 30t-30 72z" />
    <glyph glyph-name="Idotaccent" unicode="&#x130;" horiz-adv-x="294" 
d="M40 0v700h214v-700h-214zM61 842q0 36 25.5 61t61.5 25q35 0 60.5 -25t25.5 -61t-25.5 -61t-60.5 -25q-36 0 -61.5 25t-25.5 61z" />
    <glyph glyph-name="dotlessi" unicode="&#x131;" horiz-adv-x="271" 
d="M42 0v506h187v-506h-187z" />
    <glyph glyph-name="IJ" unicode="&#x132;" horiz-adv-x="842" 
d="M40 0v700h214v-700h-214zM294 181l194 56q2 -19 15.5 -31.5t35.5 -12.5q49 0 49 63v444h214v-444q0 -267 -248 -267q-107 0 -179 53t-81 139z" />
    <glyph glyph-name="ij" unicode="&#x133;" horiz-adv-x="540" 
d="M42 0v506h187v-506h-187zM35 655q0 41 29.5 71t71.5 30t71.5 -30t29.5 -71q0 -42 -29.5 -72t-71.5 -30t-71.5 30t-29.5 72zM252 -238v190q35 0 49 17.5t14 56.5v480h187v-488q0 -131 -58.5 -193.5t-191.5 -62.5zM307 655q0 41 30 71t72 30t71.5 -30t29.5 -71
q0 -42 -29.5 -72t-71.5 -30t-72 30t-30 72z" />
    <glyph glyph-name="jcircumflex" unicode="&#x135;" horiz-adv-x="260" 
d="M-20 -48q35 0 49 17.5t14 56.5v480h187v-488q0 -131 -58.5 -193.5t-191.5 -62.5v190zM-71 560l119 139h173l120 -139h-164l-42 46l-43 -46h-163z" />
    <glyph glyph-name="uni0136" unicode="&#x136;" horiz-adv-x="661" 
d="M40 0v700h214v-289l165 289h241l-202 -338l213 -362h-253l-164 285v-285h-214zM173 -239l69 183h177l-94 -183h-152z" />
    <glyph glyph-name="uni0137" unicode="&#x137;" horiz-adv-x="548" 
d="M40 0v744h187v-411l104 173h204l-146 -230l159 -276h-220l-101 192v-192h-187zM120 -239l69 183h177l-94 -183h-152z" />
    <glyph glyph-name="Lacute" unicode="&#x139;" horiz-adv-x="534" 
d="M40 0v700h214v-504h250v-196h-464zM70 750l65 138h185l-104 -138h-146z" />
    <glyph glyph-name="lacute" unicode="&#x13a;" horiz-adv-x="267" 
d="M40 0v744h187v-744h-187zM60 798l65 138h185l-104 -138h-146z" />
    <glyph glyph-name="uni013B" unicode="&#x13b;" horiz-adv-x="534" 
d="M40 0v700h214v-504h250v-196h-464zM119 -239l69 183h177l-94 -183h-152z" />
    <glyph glyph-name="uni013C" unicode="&#x13c;" horiz-adv-x="267" 
d="M40 0v744h187v-744h-187zM-25 -239l69 183h177l-94 -183h-152z" />
    <glyph glyph-name="Lcaron" unicode="&#x13d;" horiz-adv-x="534" 
d="M40 0v700h214v-504h250v-196h-464zM-58 889h163l43 -46l43 46h163l-120 -139h-172z" />
    <glyph glyph-name="lcaron" unicode="&#x13e;" horiz-adv-x="267" 
d="M40 0v744h187v-744h-187zM263 561l69 183h177l-94 -183h-152z" />
    <glyph glyph-name="Ldot" unicode="&#x13f;" horiz-adv-x="534" 
d="M40 0v700h213v-504h251v-196h-464zM285 333q0 35 25 60.5t60 25.5q36 0 61 -25.5t25 -60.5t-25 -60.5t-61 -25.5q-35 0 -60 25.5t-25 60.5z" />
    <glyph glyph-name="ldot" unicode="&#x140;" horiz-adv-x="449" 
d="M40 0v745h187v-745h-187zM258 315q0 36 25 61t60 25q36 0 61 -25t25 -61q0 -35 -25 -60t-61 -25q-35 0 -60 25t-25 60z" />
    <glyph glyph-name="Lslash" unicode="&#x141;" horiz-adv-x="609" 
d="M115 0v173l-40 -21l-65 132l105 55v361h214v-249l92 48l66 -132l-158 -82v-89h250v-196h-464z" />
    <glyph glyph-name="lslash" unicode="&#x142;" horiz-adv-x="385" 
d="M99 0v261l-47 -25l-52 99l99 52v358h187v-261l47 25l52 -99l-99 -52v-358h-187z" />
    <glyph glyph-name="Nacute" unicode="&#x143;" horiz-adv-x="746" 
d="M40 0v700h235l218 -369v369h213v-700h-234l-218 369v-369h-214zM298 750l65 138h185l-104 -138h-146z" />
    <glyph glyph-name="nacute" unicode="&#x144;" horiz-adv-x="619" 
d="M40 0v506h187v-35q53 47 137 47q104 0 159.5 -71.5t55.5 -175.5v-271h-187v253q0 34 -22.5 60.5t-59.5 26.5t-60 -25t-23 -64v-251h-187zM200 560l65 138h185l-104 -138h-146z" />
    <glyph glyph-name="uni0145" unicode="&#x145;" horiz-adv-x="746" 
d="M40 0v700h235l218 -369v369h213v-700h-234l-218 369v-369h-214zM220 -239l69 183h177l-94 -183h-152z" />
    <glyph glyph-name="uni0146" unicode="&#x146;" horiz-adv-x="619" 
d="M40 0v506h187v-35q53 47 137 47q104 0 159.5 -71.5t55.5 -175.5v-271h-187v253q0 34 -22.5 60.5t-59.5 26.5t-60 -25t-23 -64v-251h-187zM152 -239l69 183h177l-94 -183h-152z" />
    <glyph glyph-name="Ncaron" unicode="&#x147;" horiz-adv-x="746" 
d="M40 0v700h235l218 -369v369h213v-700h-234l-218 369v-369h-214zM167 889h163l43 -46l43 46h163l-120 -139h-172z" />
    <glyph glyph-name="ncaron" unicode="&#x148;" horiz-adv-x="619" 
d="M40 0v506h187v-35q53 47 137 47q104 0 159.5 -71.5t55.5 -175.5v-271h-187v253q0 34 -22.5 60.5t-59.5 26.5t-60 -25t-23 -64v-251h-187zM80 699h163l43 -46l43 46h163l-120 -139h-172z" />
    <glyph glyph-name="napostrophe" unicode="&#x149;" horiz-adv-x="668" 
d="M89 0v507h187v-36q53 47 137 47q104 0 159.5 -71.5t55.5 -175.5v-271h-187v253q0 35 -22 61t-60 26q-37 0 -60 -25t-23 -63v-252h-187zM-40 539l69 183h177l-93 -183h-153z" />
    <glyph glyph-name="Eng" unicode="&#x14a;" horiz-adv-x="746" 
d="M427 -59q34 0 49.5 13.5t15.5 45.5l-239 385v-385h-213v700h234l218 -351v351h214v-700q0 -144 -63 -201t-216 -57v199z" />
    <glyph glyph-name="eng" unicode="&#x14b;" horiz-adv-x="618" 
d="M328 -52q36 0 49.5 17.5t13.5 52.5v236q0 35 -22 61t-59 26t-60 -25.5t-23 -63.5v-252h-187v507h187v-35q55 47 136 47q105 0 160 -71.5t55 -176.5v-253q0 -135 -54 -198t-196 -63v191z" />
    <glyph glyph-name="Omacron" unicode="&#x14c;" horiz-adv-x="767" 
d="M383 -11q-150 0 -256.5 105.5t-106.5 255.5t106.5 256t256.5 106q151 0 257.5 -105.5t106.5 -256.5q0 -150 -106.5 -255.5t-257.5 -105.5zM234 350q0 -62 44 -106t105 -44q62 0 106 44t44 106t-44 106t-106 44t-105.5 -44t-43.5 -106zM248 748v142h271v-142h-271z" />
    <glyph glyph-name="omacron" unicode="&#x14d;" horiz-adv-x="582" 
d="M291 -12q-112 0 -191.5 77t-79.5 188q0 112 79 188.5t192 76.5t192 -76.5t79 -188.5q0 -111 -79 -188t-192 -77zM156 558v142h271v-142h-271zM207 253q0 -35 24.5 -59.5t59.5 -24.5t59.5 24.5t24.5 59.5t-24.5 59.5t-59.5 24.5t-59.5 -24.5t-24.5 -59.5z" />
    <glyph glyph-name="Ohungarumlaut" unicode="&#x150;" horiz-adv-x="767" 
d="M383 -11q-150 0 -256.5 105.5t-106.5 255.5t106.5 256t256.5 106q151 0 257.5 -105.5t106.5 -256.5q0 -150 -106.5 -255.5t-257.5 -105.5zM193 750l65 138h185l-104 -138h-146zM234 350q0 -62 44 -106t105 -44q62 0 106 44t44 106t-44 106t-106 44t-105.5 -44t-43.5 -106
zM404 750l66 138h185l-104 -138h-147z" />
    <glyph glyph-name="ohungarumlaut" unicode="&#x151;" horiz-adv-x="582" 
d="M291 -12q-112 0 -191.5 77t-79.5 188q0 112 79 188.5t192 76.5t192 -76.5t79 -188.5q0 -111 -79 -188t-192 -77zM97 560l65 138h185l-104 -138h-146zM207 253q0 -35 24.5 -59.5t59.5 -24.5t59.5 24.5t24.5 59.5t-24.5 59.5t-59.5 24.5t-59.5 -24.5t-24.5 -59.5zM308 560
l66 138h185l-104 -138h-147z" />
    <glyph glyph-name="OE" unicode="&#x152;" horiz-adv-x="1071" 
d="M383 -11q-150 0 -256.5 105.5t-106.5 255.5t106.5 256t256.5 106q94 0 176 -46v34h474v-196h-260v-69h251v-160h-251v-79h268v-196h-482v34q-81 -45 -176 -45zM233 350q0 -62 44 -106t106 -44q61 0 105.5 44t44.5 106t-44 106t-106 44t-106 -44t-44 -106z" />
    <glyph glyph-name="oe" unicode="&#x153;" horiz-adv-x="1004" 
d="M291 -11q-113 0 -192 76.5t-79 188.5q0 111 79 188t192 77q129 0 209 -96q38 45 93 70.5t117 25.5q56 0 108.5 -23t92 -63t59.5 -101.5t11 -131.5h-360q29 -57 103 -57q63 0 99 42l139 -63q-31 -60 -93.5 -96.5t-144.5 -36.5q-145 0 -225 93q-82 -93 -208 -93zM207 254
q0 -35 24.5 -60t59.5 -25t59.5 25t24.5 60q0 34 -24.5 59t-59.5 25t-59.5 -25t-24.5 -59zM622 307h181q-12 26 -36.5 42t-56.5 16q-58 0 -88 -58z" />
    <glyph glyph-name="Racute" unicode="&#x154;" horiz-adv-x="628" 
d="M40 0v700h255q122 0 199 -64.5t77 -174.5q0 -130 -103 -194l160 -267h-239l-130 222h-5v-222h-214zM170 750l65 138h185l-104 -138h-146zM254 409h41q28 0 44 14.5t16 37.5t-16 37.5t-44 14.5h-41v-104z" />
    <glyph glyph-name="racute" unicode="&#x155;" horiz-adv-x="384" 
d="M40 0v507h187v-53q46 64 137 64v-178q-68 0 -102.5 -25t-34.5 -108v-207h-187zM100 560l65 138h185l-104 -138h-146z" />
    <glyph glyph-name="uni0156" unicode="&#x156;" horiz-adv-x="628" 
d="M40 0v700h255q122 0 199 -64.5t77 -174.5q0 -130 -103 -194l160 -267h-239l-130 222h-5v-222h-214zM161 -239l69 183h177l-94 -183h-152zM254 409h41q28 0 44 14.5t16 37.5t-16 37.5t-44 14.5h-41v-104z" />
    <glyph glyph-name="uni0157" unicode="&#x157;" horiz-adv-x="384" 
d="M40 0v507h187v-53q46 64 137 64v-178q-68 0 -102.5 -25t-34.5 -108v-207h-187zM-26 -239l69 183h177l-94 -183h-152z" />
    <glyph glyph-name="Rcaron" unicode="&#x158;" horiz-adv-x="628" 
d="M40 0v700h255q122 0 199 -64.5t77 -174.5q0 -130 -103 -194l160 -267h-239l-130 222h-5v-222h-214zM50 889h163l43 -46l43 46h163l-120 -139h-172zM254 409h41q28 0 44 14.5t16 37.5t-16 37.5t-44 14.5h-41v-104z" />
    <glyph glyph-name="rcaron" unicode="&#x159;" horiz-adv-x="384" 
d="M40 0v507h187v-53q46 64 137 64v-178q-68 0 -102.5 -25t-34.5 -108v-207h-187zM-3 699h163l43 -46l43 46h163l-120 -139h-172z" />
    <glyph glyph-name="Sacute" unicode="&#x15a;" horiz-adv-x="564" 
d="M279 -11q-121 0 -190 63.5t-69 160.5l195 15q2 -60 66 -60q56 0 56 37q0 20 -19 29.5t-96 35.5q-93 31 -136 81t-43 140q0 102 68 161.5t165 59.5q100 0 164 -53t72 -136l-191 -22q-1 18 -12 30t-29 12q-17 0 -28 -9.5t-11 -25.5q0 -20 14.5 -32t55.5 -25
q62 -20 99 -36.5t71 -42t48.5 -61.5t14.5 -86q0 -115 -71.5 -175.5t-193.5 -60.5zM190 750l65 138h185l-104 -138h-146z" />
    <glyph glyph-name="sacute" unicode="&#x15b;" horiz-adv-x="487" 
d="M252 -12q-97 0 -162.5 37t-74.5 112l173 29q0 -19 14 -31.5t40 -12.5q44 0 44 27q0 12 -15.5 18.5t-63.5 17.5q-17 4 -27 6q-145 34 -145 160q0 83 61 125t144 42q78 0 136.5 -36t72.5 -98l-154 -32q-2 13 -13.5 23t-32.5 10q-16 0 -25.5 -8t-9.5 -19q0 -16 16 -22.5
t68 -17.5q39 -8 64.5 -16.5t54 -25.5t42.5 -46t13 -70q0 -88 -63 -130t-157 -42zM140 560l65 138h185l-104 -138h-146z" />
    <glyph glyph-name="scircumflex" unicode="&#x15d;" horiz-adv-x="487" 
d="M252 -12q-97 0 -162.5 37t-74.5 112l173 29q0 -19 14 -31.5t40 -12.5q44 0 44 27q0 12 -15.5 18.5t-63.5 17.5q-17 4 -27 6q-145 34 -145 160q0 83 61 125t144 42q78 0 136.5 -36t72.5 -98l-154 -32q-2 13 -13.5 23t-32.5 10q-16 0 -25.5 -8t-9.5 -19q0 -16 16 -22.5
t68 -17.5q39 -8 64.5 -16.5t54 -25.5t42.5 -46t13 -70q0 -88 -63 -130t-157 -42zM33 560l119 139h173l120 -139h-164l-42 46l-43 -46h-163z" />
    <glyph glyph-name="Scedilla" unicode="&#x15e;" horiz-adv-x="564" 
d="M275 -319q-40 0 -80 14t-64 33l58 104q37 -25 69 -25q20 0 30 10t10 24q0 13 -8 21t-21 8q-14 0 -26 -12l-83 50l46 88q-88 18 -137 77t-49 139l195 16q2 -61 66 -61q26 0 41 10.5t15 27.5q0 18 -16.5 27.5t-74.5 29.5q-7 2 -12.5 4t-11.5 4q-93 31 -136 80.5t-43 140.5
q0 101 68 160.5t165 59.5q100 0 164 -52.5t72 -135.5l-191 -22q-1 17 -12 29.5t-29 12.5q-17 0 -28 -9.5t-11 -25.5q0 -20 14.5 -32t55.5 -25q63 -21 99.5 -37t70.5 -42t48.5 -62t14.5 -86q0 -107 -62.5 -166.5t-170.5 -68.5l-12 -23h8q59 0 98 -34t39 -91
q0 -75 -46.5 -117.5t-122.5 -42.5z" />
    <glyph glyph-name="scedilla" unicode="&#x15f;" horiz-adv-x="486" 
d="M240 -320q-41 0 -81 14t-63 33l57 104q41 -25 69 -25q20 0 30 10t10 24q0 13 -8 21t-21 8q-17 0 -25 -12l-84 50l46 88q-142 27 -155 141l172 29q0 -19 14 -31.5t41 -12.5q43 0 43 27q0 13 -15.5 19t-66.5 18l-7.5 1.5t-7 1.5t-8.5 2q-145 32 -145 159q0 83 61 125.5
t144 42.5q77 0 135.5 -36t72.5 -98l-154 -32q-1 13 -12.5 23t-33.5 10q-16 0 -25.5 -8t-9.5 -19q0 -15 16 -22t68 -18q39 -8 64.5 -16.5t54 -25.5t42.5 -46t13 -70q0 -82 -55 -124t-141 -47l-12 -23h9q58 0 97 -34t39 -91q0 -75 -46 -117.5t-122 -42.5z" />
    <glyph glyph-name="Scaron" unicode="&#x160;" horiz-adv-x="564" 
d="M279 -11q-121 0 -190 63.5t-69 160.5l195 15q2 -60 66 -60q56 0 56 37q0 20 -19 29.5t-96 35.5q-93 31 -136 81t-43 140q0 102 68 161.5t165 59.5q100 0 164 -53t72 -136l-191 -22q-1 18 -12 30t-29 12q-17 0 -28 -9.5t-11 -25.5q0 -20 14.5 -32t55.5 -25
q62 -20 99 -36.5t71 -42t48.5 -61.5t14.5 -86q0 -115 -71.5 -175.5t-193.5 -60.5zM70 889h163l43 -46l43 46h163l-120 -139h-172z" />
    <glyph glyph-name="scaron" unicode="&#x161;" horiz-adv-x="487" 
d="M252 -12q-97 0 -162.5 37t-74.5 112l173 29q0 -19 14 -31.5t40 -12.5q44 0 44 27q0 12 -15.5 18.5t-63.5 17.5q-17 4 -27 6q-145 34 -145 160q0 83 61 125t144 42q78 0 136.5 -36t72.5 -98l-154 -32q-2 13 -13.5 23t-32.5 10q-16 0 -25.5 -8t-9.5 -19q0 -16 16 -22.5
t68 -17.5q39 -8 64.5 -16.5t54 -25.5t42.5 -46t13 -70q0 -88 -63 -130t-157 -42zM33 699h163l43 -46l43 46h163l-120 -139h-172z" />
    <glyph glyph-name="uni0162" unicode="&#x162;" horiz-adv-x="584" 
d="M307 -319q-41 0 -80.5 14t-63.5 33l58 104q37 -25 69 -25q39 0 39 34q0 13 -7.5 21t-20.5 8q-14 0 -26 -12l-83 50l48 92h-55v504h-155v196h524v-196h-155v-504h-51l-17 -34q1 0 3.5 0.5t4.5 0.5q59 0 98 -34.5t39 -91.5q0 -75 -46.5 -117.5t-122.5 -42.5z" />
    <glyph glyph-name="uni0163" unicode="&#x163;" horiz-adv-x="456" 
d="M247 -319q-41 0 -81.5 14t-62.5 33l57 103q39 -24 70 -24q20 0 29.5 10t9.5 24q0 28 -28 28q-15 0 -26 -11l-83 50l53 102q-96 42 -96 188v139h-79v169h79v114h187v-114h123v-169h-123v-124q0 -47 41 -47q23 0 34 15l95 -119q-57 -70 -162 -70l-13 -26h8q59 0 98 -34
t39 -91q0 -75 -46.5 -117.5t-122.5 -42.5z" />
    <glyph glyph-name="Tcaron" unicode="&#x164;" horiz-adv-x="584" 
d="M185 0v504h-155v196h524v-196h-155v-504h-214zM86 889h163l43 -46l43 46h163l-120 -139h-172z" />
    <glyph glyph-name="tcaron" unicode="&#x165;" horiz-adv-x="456" 
d="M282 -9q-193 0 -193 206v139h-79v170h79v113h187v-113h123v-170h-123v-124q0 -47 40 -47q22 0 35 16l95 -120q-57 -70 -164 -70zM326 560l69 183h177l-94 -183h-152z" />
    <glyph glyph-name="Tbar" unicode="&#x166;" horiz-adv-x="584" 
d="M185 0v286h-88v143h88v75h-155v196h524v-196h-155v-75h88v-143h-88v-286h-214z" />
    <glyph glyph-name="tbar" unicode="&#x167;" horiz-adv-x="456" 
d="M282 -8q-192 0 -192 207v13h-58v98h58v28h-80v169h80v113h186v-113h124v-169h-124v-28h83v-98h-82q0 -45 40 -45q20 0 35 15l94 -120q-57 -70 -164 -70z" />
    <glyph glyph-name="utilde" unicode="&#x169;" horiz-adv-x="618" 
d="M255 -12q-105 0 -160 71.5t-55 176.5v271h186v-254q0 -34 22.5 -60.5t59.5 -26.5t60 25.5t23 63.5v252h187v-507h-187v35q-55 -47 -136 -47zM95 596q8 52 40 93.5t82 41.5q35 0 87.5 -25.5t70.5 -25.5q29 0 37 38l112 -43q-10 -56 -42 -94.5t-84 -38.5q-41 0 -90.5 25.5
t-62.5 25.5q-29 0 -38 -40z" />
    <glyph glyph-name="Umacron" unicode="&#x16a;" horiz-adv-x="706" 
d="M353 -11q-147 0 -230 76t-83 236v399h214v-390q0 -55 26.5 -82.5t72.5 -27.5t72.5 27.5t26.5 82.5v390h214v-399q0 -160 -83 -236t-230 -76zM218 748v142h271v-142h-271z" />
    <glyph glyph-name="umacron" unicode="&#x16b;" horiz-adv-x="618" 
d="M255 -12q-105 0 -160 71.5t-55 176.5v271h186v-254q0 -34 22.5 -60.5t59.5 -26.5t60 25.5t23 63.5v252h187v-507h-187v35q-55 -47 -136 -47zM174 558v142h271v-142h-271z" />
    <glyph glyph-name="ubreve" unicode="&#x16d;" horiz-adv-x="618" 
d="M255 -12q-105 0 -160 71.5t-55 176.5v271h186v-254q0 -34 22.5 -60.5t59.5 -26.5t60 25.5t23 63.5v252h187v-507h-187v35q-55 -47 -136 -47zM113 730h142q0 -24 14 -40t40 -16q25 0 39.5 16t14.5 40h142q0 -82 -57.5 -130t-138.5 -48q-82 0 -139 47.5t-57 130.5z" />
    <glyph glyph-name="Uring" unicode="&#x16e;" horiz-adv-x="706" 
d="M353 -11q-147 0 -230 76t-83 236v399h214v-390q0 -55 26.5 -82.5t72.5 -27.5t72.5 27.5t26.5 82.5v390h214v-399q0 -160 -83 -236t-230 -76zM222 855q0 54 38.5 92t92.5 38t92.5 -38t38.5 -92q0 -55 -38.5 -93t-92.5 -38t-92.5 38t-38.5 93zM320 855q0 -14 9.5 -23.5
t23.5 -9.5t23.5 9.5t9.5 23.5q0 13 -10 23t-23 10t-23 -10t-10 -23z" />
    <glyph glyph-name="uring" unicode="&#x16f;" horiz-adv-x="618" 
d="M255 -12q-105 0 -160 71.5t-55 176.5v271h186v-254q0 -34 22.5 -60.5t59.5 -26.5t60 25.5t23 63.5v252h187v-507h-187v35q-55 -47 -136 -47zM178 676q0 54 38.5 92t92.5 38t92.5 -38t38.5 -92q0 -55 -38.5 -93t-92.5 -38t-92.5 38t-38.5 93zM276 676q0 -14 9.5 -23.5
t23.5 -9.5t23.5 9.5t9.5 23.5t-10 23.5t-23 9.5t-23 -9.5t-10 -23.5z" />
    <glyph glyph-name="Uhungarumlaut" unicode="&#x170;" horiz-adv-x="706" 
d="M353 -11q-147 0 -230 76t-83 236v399h214v-390q0 -55 26.5 -82.5t72.5 -27.5t72.5 27.5t26.5 82.5v390h214v-399q0 -160 -83 -236t-230 -76zM150 750l65 138h185l-104 -138h-146zM361 750l66 138h185l-104 -138h-147z" />
    <glyph glyph-name="uhungarumlaut" unicode="&#x171;" horiz-adv-x="618" 
d="M255 -12q-105 0 -160 71.5t-55 176.5v271h186v-254q0 -34 22.5 -60.5t59.5 -26.5t60 25.5t23 63.5v252h187v-507h-187v35q-55 -47 -136 -47zM115 560l65 138h185l-104 -138h-146zM326 560l66 138h185l-104 -138h-147z" />
    <glyph glyph-name="Uogonek" unicode="&#x172;" horiz-adv-x="705" 
d="M513 -301q-39 -12 -83.5 -8.5t-82 17t-62 47t-24.5 80.5q0 82 92 153q-147 0 -230 76.5t-83 236.5v399h214v-390q0 -55 26.5 -82.5t72.5 -27.5t72.5 27.5t26.5 82.5v390h213v-399q0 -212 -150 -282q-32 -20 -61 -53.5t-29 -62.5q0 -37 28.5 -47.5t59.5 -4.5v-152z" />
    <glyph glyph-name="uogonek" unicode="&#x173;" horiz-adv-x="618" 
d="M596 -301q-40 -12 -84.5 -8.5t-82 17t-62 47t-24.5 80.5q0 87 107 165h-58v35q-55 -47 -137 -47q-104 0 -159.5 71.5t-55.5 175.5v272h187v-254q0 -34 22.5 -60.5t59.5 -26.5t60 25.5t23 63.5v252h187v-507q-33 -25 -52 -47t-19 -50q0 -37 28.5 -47.5t59.5 -4.5v-152z
" />
    <glyph glyph-name="Wcircumflex" unicode="&#x174;" horiz-adv-x="1113" 
d="M231 0l-231 700h228l119 -411l125 411h169l125 -411l119 411h228l-231 -700h-212l-113 376l-114 -376h-212zM350 750l119 139h173l120 -139h-164l-42 46l-43 -46h-163z" />
    <glyph glyph-name="wcircumflex" unicode="&#x175;" horiz-adv-x="911" 
d="M195 0l-195 507h202l95 -256l84 256h148l85 -256l94 256h203l-195 -507h-185l-76 228l-75 -228h-185zM249 560l119 139h173l120 -139h-164l-42 46l-43 -46h-163z" />
    <glyph glyph-name="Ycircumflex" unicode="&#x176;" horiz-adv-x="743" 
d="M265 0v297l-265 403h243l128 -218l129 218h243l-265 -403v-297h-213zM165 750l119 139h173l120 -139h-164l-42 46l-43 -46h-163z" />
    <glyph glyph-name="ycircumflex" unicode="&#x177;" horiz-adv-x="603" 
d="M93 -238l108 265l-201 480h205l94 -243l99 243h205l-312 -745h-198zM95 560l119 139h173l120 -139h-164l-42 46l-43 -46h-163z" />
    <glyph glyph-name="Ydieresis" unicode="&#x178;" horiz-adv-x="743" 
d="M265 0v297l-265 403h243l128 -218l129 218h243l-265 -403v-297h-213zM173 842q0 36 25 61t61 25t61 -25t25 -61t-25 -61t-61 -25t-61 25t-25 61zM396 842q0 36 25.5 61t61.5 25q35 0 60.5 -25t25.5 -61t-25.5 -61t-60.5 -25q-36 0 -61.5 25t-25.5 61z" />
    <glyph glyph-name="Zacute" unicode="&#x179;" horiz-adv-x="613" 
d="M40 0v169l246 335h-237v196h497v-169l-245 -335h272v-196h-533zM210 750l65 138h185l-104 -138h-146z" />
    <glyph glyph-name="zacute" unicode="&#x17a;" horiz-adv-x="524" 
d="M30 0v160l194 178h-176v169h428v-161l-194 -177h212v-169h-464zM171 560l65 138h185l-104 -138h-146z" />
    <glyph glyph-name="Zdotaccent" unicode="&#x17b;" horiz-adv-x="613" 
d="M40 0v169l246 335h-237v196h497v-169l-245 -335h272v-196h-533zM210 842q0 36 25.5 61t61.5 25q35 0 60.5 -25t25.5 -61t-25.5 -61t-60.5 -25q-36 0 -61.5 25t-25.5 61z" />
    <glyph glyph-name="zdotaccent" unicode="&#x17c;" horiz-adv-x="524" 
d="M30 0v160l194 178h-176v169h428v-161l-194 -177h212v-169h-464zM176 642q0 36 25.5 61t61.5 25q35 0 60.5 -25t25.5 -61t-25.5 -61t-60.5 -25q-36 0 -61.5 25t-25.5 61z" />
    <glyph glyph-name="Zcaron" unicode="&#x17d;" horiz-adv-x="613" 
d="M40 0v169l246 335h-237v196h497v-169l-245 -335h272v-196h-533zM91 889h163l43 -46l43 46h163l-120 -139h-172z" />
    <glyph glyph-name="zcaron" unicode="&#x17e;" horiz-adv-x="524" 
d="M30 0v160l194 178h-176v169h428v-161l-194 -177h212v-169h-464zM56 699h163l43 -46l43 46h163l-120 -139h-172z" />
    <glyph glyph-name="gcaron" unicode="&#x1e7;" horiz-adv-x="623" 
d="M299 -238q-89 0 -161 38t-100 96l141 81q11 -17 39.5 -34.5t71.5 -17.5q58 0 82 29.5t24 72.5v4q-52 -34 -118 -34q-112 0 -185 72t-73 184q0 113 73.5 189t184.5 76q66 0 118 -36v24h187v-479q0 -127 -77 -196t-207 -69zM110 699h163l43 -46l43 46h163l-120 -139h-172z
M207 253q0 -35 25 -59.5t60 -24.5q34 0 59 24.5t25 59.5t-24.5 59.5t-59.5 24.5t-60 -24.5t-25 -59.5z" />
    <glyph glyph-name="uni0218" unicode="&#x218;" horiz-adv-x="564" 
d="M279 -11q-121 0 -190 63.5t-69 160.5l195 15q2 -60 66 -60q56 0 56 37q0 20 -19 29.5t-96 35.5q-93 31 -136 81t-43 140q0 102 68 161.5t165 59.5q100 0 164 -53t72 -136l-191 -22q-1 18 -12 30t-29 12q-17 0 -28 -9.5t-11 -25.5q0 -20 14.5 -32t55.5 -25
q62 -20 99 -36.5t71 -42t48.5 -61.5t14.5 -86q0 -115 -71.5 -175.5t-193.5 -60.5zM120 -239l69 183h177l-94 -183h-152z" />
    <glyph glyph-name="uni0219" unicode="&#x219;" horiz-adv-x="487" 
d="M252 -12q-97 0 -162.5 37t-74.5 112l173 29q0 -19 14 -31.5t40 -12.5q44 0 44 27q0 12 -15.5 18.5t-63.5 17.5q-17 4 -27 6q-145 34 -145 160q0 83 61 125t144 42q78 0 136.5 -36t72.5 -98l-154 -32q-2 13 -13.5 23t-32.5 10q-16 0 -25.5 -8t-9.5 -19q0 -16 16 -22.5
t68 -17.5q39 -8 64.5 -16.5t54 -25.5t42.5 -46t13 -70q0 -88 -63 -130t-157 -42zM80 -239l69 183h177l-94 -183h-152z" />
    <glyph glyph-name="uni021A" unicode="&#x21a;" horiz-adv-x="584" 
d="M185 0v504h-155v196h524v-196h-155v-504h-214zM132 -239l69 183h177l-94 -183h-152z" />
    <glyph glyph-name="uni021B" unicode="&#x21b;" horiz-adv-x="456" 
d="M282 -8q-193 0 -193 206v140h-79v169h79v113h187v-113h123v-169h-123v-124q0 -48 41 -48q24 0 34 16l95 -120q-57 -70 -164 -70zM100 -239l69 183h177l-94 -183h-152z" />
    <glyph glyph-name="uni0237" unicode="&#x237;" horiz-adv-x="260" 
d="M-20 -48q35 0 49 17.5t14 56.5v480h187v-488q0 -131 -58.5 -193.5t-191.5 -62.5v190z" />
    <glyph glyph-name="gravecomb" unicode="&#x300;" 
d="M154 750l-104 138h184l66 -138h-146z" />
    <glyph glyph-name="acutecomb" unicode="&#x301;" 
d="M50 750l65 138h185l-104 -138h-146z" />
    <glyph glyph-name="uni0302" unicode="&#x302;" 
d="M50 750l119 139h173l120 -139h-164l-42 46l-43 -46h-163z" />
    <glyph glyph-name="tildecomb" unicode="&#x303;" 
d="M353 725q-41 0 -90.5 25.5t-62.5 25.5q-29 0 -38 -40l-112 43q8 52 40 93.5t82 41.5q35 0 87.5 -25.5t70.5 -25.5q29 0 37 38l112 -43q-10 -56 -42 -94.5t-84 -38.5z" />
    <glyph glyph-name="uni0304" unicode="&#x304;" 
d="M50 748v142h271v-142h-271z" />
    <glyph glyph-name="uni0306" unicode="&#x306;" 
d="M246 732q-82 0 -139 47.5t-57 130.5h142q0 -24 14 -40t40 -16q25 0 39.5 16t14.5 40h142q0 -82 -57.5 -130t-138.5 -48z" />
    <glyph glyph-name="uni0307" unicode="&#x307;" 
d="M137 756q-36 0 -61.5 25t-25.5 61t25.5 61t61.5 25q35 0 60.5 -25t25.5 -61t-25.5 -61t-60.5 -25z" />
    <glyph glyph-name="uni0308" unicode="&#x308;" 
d="M360 756q-36 0 -61.5 25t-25.5 61t25.5 61t61.5 25q35 0 60.5 -25t25.5 -61t-25.5 -61t-60.5 -25zM50 842q0 36 25 61t61 25t61 -25t25 -61t-25 -61t-61 -25t-61 25t-25 61z" />
    <glyph glyph-name="uni030A" unicode="&#x30a;" 
d="M181 724q-54 0 -92.5 38t-38.5 93q0 54 38.5 92t92.5 38t92.5 -38t38.5 -92q0 -55 -38.5 -93t-92.5 -38zM148 855q0 -14 9.5 -23.5t23.5 -9.5t23.5 9.5t9.5 23.5q0 13 -10 23t-23 10t-23 -10t-10 -23z" />
    <glyph glyph-name="uni030B" unicode="&#x30b;" 
d="M261 750l66 138h185l-104 -138h-147zM50 750l65 138h185l-104 -138h-146z" />
    <glyph glyph-name="uni030C" unicode="&#x30c;" 
d="M170 750l-120 139h163l43 -46l43 46h163l-120 -139h-172z" />
    <glyph glyph-name="uni0326" unicode="&#x326;" 
d="M50 -239l69 183h177l-94 -183h-152z" />
    <glyph glyph-name="uni0327" unicode="&#x327;" 
d="M194 -319q-40 0 -80 14t-64 33l58 104q38 -25 69 -25q20 0 30 10t10 24q0 13 -8 21t-21 8q-14 0 -26 -12l-83 50l48 92h108l-17 -34h8q59 0 98 -34t39 -91q0 -75 -46.5 -117.5t-122.5 -42.5z" />
    <glyph glyph-name="uni0328" unicode="&#x328;" 
d="M303 -301q-40 -12 -84.5 -8.5t-82 17t-62 47t-24.5 80.5q0 87 108 165h128q-33 -25 -52 -47t-19 -50q0 -37 28.5 -47.5t59.5 -4.5v-152z" />
    <glyph glyph-name="Wgrave" unicode="&#x1e80;" horiz-adv-x="1113" 
d="M231 0l-231 700h228l119 -411l125 411h169l125 -411l119 411h228l-231 -700h-212l-113 376l-114 -376h-212zM380 888h184l66 -138h-146z" />
    <glyph glyph-name="wgrave" unicode="&#x1e81;" horiz-adv-x="911" 
d="M195 0l-195 507h202l95 -256l84 256h148l85 -256l94 256h203l-195 -507h-185l-76 228l-75 -228h-185zM276 698h184l66 -138h-146z" />
    <glyph glyph-name="Wacute" unicode="&#x1e82;" horiz-adv-x="1113" 
d="M231 0l-231 700h228l119 -411l125 411h169l125 -411l119 411h228l-231 -700h-212l-113 376l-114 -376h-212zM482 750l65 138h185l-104 -138h-146z" />
    <glyph glyph-name="wacute" unicode="&#x1e83;" horiz-adv-x="911" 
d="M195 0l-195 507h202l95 -256l84 256h148l85 -256l94 256h203l-195 -507h-185l-76 228l-75 -228h-185zM382 560l65 138h185l-104 -138h-146z" />
    <glyph glyph-name="Wdieresis" unicode="&#x1e84;" horiz-adv-x="1113" 
d="M231 0l-231 700h228l119 -411l125 411h169l125 -411l119 411h228l-231 -700h-212l-113 376l-114 -376h-212zM358 842q0 36 25 61t61 25t61 -25t25 -61t-25 -61t-61 -25t-61 25t-25 61zM581 842q0 36 25.5 61t61.5 25q35 0 60.5 -25t25.5 -61t-25.5 -61t-60.5 -25
q-36 0 -61.5 25t-25.5 61z" />
    <glyph glyph-name="wdieresis" unicode="&#x1e85;" horiz-adv-x="911" 
d="M195 0l-195 507h202l95 -256l84 256h148l85 -256l94 256h203l-195 -507h-185l-76 228l-75 -228h-185zM257 642q0 36 25 61t61 25t61 -25t25 -61t-25 -61t-61 -25t-61 25t-25 61zM480 642q0 36 25.5 61t61.5 25q35 0 60.5 -25t25.5 -61t-25.5 -61t-60.5 -25
q-36 0 -61.5 25t-25.5 61z" />
    <glyph glyph-name="uni1E9E" unicode="&#x1e9e;" horiz-adv-x="648" 
d="M502 408q126 -44 126 -173q0 -122 -77 -178.5t-194 -56.5h-34v169h21q34 0 55.5 15.5t21.5 45.5t-21.5 45.5t-55.5 15.5h-21v118l69 113h-82q-25 0 -41 -18.5t-16 -52.5v-451h-213v451q0 71 22.5 122t62 77.5t84 38t97.5 11.5h266v-178z" />
    <glyph glyph-name="uni1EBD" unicode="&#x1ebd;" horiz-adv-x="585" 
d="M305 -12q-129 0 -207 75.5t-78 189.5q0 112 79 188.5t192 76.5q56 0 108.5 -23t92 -63t59.5 -101t11 -131h-360q30 -58 103 -58q66 0 99 43l139 -64q-31 -59 -94 -96t-144 -37zM78 596q8 52 40 93.5t82 41.5q35 0 87.5 -25.5t70.5 -25.5q29 0 37 38l112 -43
q-10 -56 -42 -94.5t-84 -38.5q-41 0 -90.5 25.5t-62.5 25.5q-29 0 -38 -40zM203 306h182q-27 58 -94 58q-59 0 -88 -58z" />
    <glyph glyph-name="Ygrave" unicode="&#x1ef2;" horiz-adv-x="743" 
d="M265 0v297l-265 403h243l128 -218l129 218h243l-265 -403v-297h-213zM200 888h184l66 -138h-146z" />
    <glyph glyph-name="ygrave" unicode="&#x1ef3;" horiz-adv-x="603" 
d="M93 -238l108 265l-201 480h205l94 -243l99 243h205l-312 -745h-198zM125 698h184l66 -138h-146z" />
    <glyph glyph-name="uni1EF9" unicode="&#x1ef9;" horiz-adv-x="603" 
d="M93 -238l108 265l-201 480h205l94 -243l99 243h205l-312 -745h-198zM87 596q8 52 40 93.5t82 41.5q35 0 87.5 -25.5t70.5 -25.5q29 0 37 38l112 -43q-10 -56 -42 -94.5t-84 -38.5q-41 0 -90.5 25.5t-62.5 25.5q-29 0 -38 -40z" />
    <glyph glyph-name="endash" unicode="&#x2013;" horiz-adv-x="623" 
d="M70 200v196h483v-196h-483z" />
    <glyph glyph-name="emdash" unicode="&#x2014;" horiz-adv-x="712" 
d="M70 200v196h572v-196h-572z" />
    <glyph glyph-name="quoteleft" unicode="&#x2018;" horiz-adv-x="314" 
d="M30 508l111 192h153l-78 -192h-186z" />
    <glyph glyph-name="quoteright" unicode="&#x2019;" horiz-adv-x="314" 
d="M20 508l78 192h186l-111 -192h-153z" />
    <glyph glyph-name="quotesinglbase" unicode="&#x201a;" horiz-adv-x="253" 
d="M-30 -135l77 192h186l-111 -192h-152z" />
    <glyph glyph-name="quotedblleft" unicode="&#x201c;" horiz-adv-x="527" 
d="M243 508l111 192h153l-78 -192h-186zM30 508l111 192h153l-78 -192h-186z" />
    <glyph glyph-name="quotedblright" unicode="&#x201d;" horiz-adv-x="527" 
d="M233 508l78 192h186l-111 -192h-153zM20 508l78 192h186l-111 -192h-153z" />
    <glyph glyph-name="quotedblbase" unicode="&#x201e;" horiz-adv-x="476" 
d="M183 -135l77 192h186l-111 -192h-152zM-30 -135l77 192h186l-111 -192h-152z" />
    <glyph glyph-name="dagger" unicode="&#x2020;" horiz-adv-x="474" 
d="M135 0v383h-95v196h95v121h204v-121h95v-196h-95v-383h-204z" />
    <glyph glyph-name="daggerdbl" unicode="&#x2021;" horiz-adv-x="474" 
d="M135 0v121h-95v196h95v66h-95v196h95v121h204v-121h95v-196h-95v-66h95v-196h-95v-121h-204z" />
    <glyph glyph-name="bullet" unicode="&#x2022;" horiz-adv-x="358" 
d="M179 115q-57 0 -98 40.5t-41 98.5t41 98.5t98 40.5q58 0 98.5 -40.5t40.5 -98.5t-40.5 -98.5t-98.5 -40.5z" />
    <glyph glyph-name="perthousand" unicode="&#x2030;" horiz-adv-x="1260" 
d="M111 0l480 700h152l-480 -700h-152zM30 536q0 76 53.5 129.5t129.5 53.5t130 -53.5t54 -129.5t-54 -129.5t-130 -53.5t-129.5 53.5t-53.5 129.5zM164 536q0 -20 14.5 -34.5t34.5 -14.5q21 0 35.5 14.5t14.5 34.5q0 21 -14.5 35.5t-35.5 14.5q-20 0 -34.5 -14.5
t-14.5 -35.5zM457 163q0 76 53.5 130t129.5 54t130 -54t54 -130t-54 -129.5t-130 -53.5t-129.5 53.5t-53.5 129.5zM591 163q0 -20 14.5 -34.5t34.5 -14.5q21 0 35.5 14.5t14.5 34.5q0 21 -14.5 35.5t-35.5 14.5q-20 0 -34.5 -14.5t-14.5 -35.5zM863 163q0 76 53.5 130
t129.5 54t130 -54t54 -130t-54 -129.5t-130 -53.5t-129.5 53.5t-53.5 129.5zM997 163q0 -20 14.5 -34.5t34.5 -14.5q21 0 35.5 14.5t14.5 34.5q0 21 -14.5 35.5t-35.5 14.5q-20 0 -34.5 -14.5t-14.5 -35.5z" />
    <glyph glyph-name="guilsinglleft" unicode="&#x2039;" horiz-adv-x="389" 
d="M169 106l-139 192l139 192h190l-139 -192l139 -192h-190z" />
    <glyph glyph-name="guilsinglright" unicode="&#x203a;" horiz-adv-x="389" 
d="M30 106l139 192l-139 192h190l139 -192l-139 -192h-190z" />
    <glyph glyph-name="Euro" unicode="&#x20ac;" horiz-adv-x="779" 
d="M444 -11q-123 0 -219.5 73t-129.5 187h-95v89h81q-1 4 -1 12t1 12h-81v89h95q33 115 129.5 188t219.5 73q92 0 171.5 -43t129.5 -116l-177 -119q-45 66 -124 66q-65 0 -111 -49h186v-89h-224q-1 -4 -1 -12t1 -12h224v-89h-186q46 -49 111 -49q83 0 128 73l177 -120
q-50 -75 -130.5 -119.5t-174.5 -44.5z" />
    <glyph glyph-name="uni20BD" unicode="&#x20bd;" horiz-adv-x="622" 
d="M53 0v88h-52v89h52v27h-53v187h53v309h264q124 0 204.5 -66t80.5 -182t-80.5 -182t-204.5 -66h-50v-27h181v-89h-181v-88h-214zM267 391h50q31 0 49.5 16.5t18.5 44.5t-18.5 44.5t-49.5 16.5h-50v-122z" />
    <glyph glyph-name="uni20BF" unicode="&#x20bf;" horiz-adv-x="613" 
d="M133 -123v123h-93v700h93v123h116v-123h43h8v123h115v-139q148 -43 148 -179q0 -83 -53 -133q83 -56 83 -155q0 -165 -178 -206v-134h-115v123h-51v-123h-116zM254 169h51q71 0 71 57q0 26 -18 41.5t-53 15.5h-51v-114zM254 435h38q35 0 50 12t15 36q0 48 -65 48h-38v-96
z" />
    <glyph glyph-name="uni2116" unicode="&#x2116;" horiz-adv-x="1145" 
d="M40 0v700h234l218 -369v369h214v-700h-235l-218 369v-369h-213zM749 479q0 76 53.5 129.5t129.5 53.5t129.5 -53.5t53.5 -129.5t-53.5 -129.5t-129.5 -53.5t-129.5 53.5t-53.5 129.5zM768 129v134h327v-134h-327zM882 479q0 -20 14.5 -35t35.5 -15q20 0 34.5 15t14.5 35
t-14.5 35t-34.5 15q-21 0 -35.5 -15t-14.5 -35z" />
    <glyph glyph-name="minus" unicode="&#x2212;" horiz-adv-x="534" 
d="M70 200v196h394v-196h-394z" />
    <glyph glyph-name="approxequal" unicode="&#x2248;" horiz-adv-x="639" 
d="M427 29q-12 0 -23 1.5t-19 3t-18 6t-15 6.5t-15 8t-12.5 8t-13 9.5t-11.5 8.5q-45 35 -77 35q-39 0 -55 -57l-138 50q8 32 21 63t33.5 62t52 50t67.5 19q32 0 61.5 -9.5t43.5 -18t38 -25.5q52 -33 78 -33q41 0 55 55l129 -41q-17 -83 -66 -142t-116 -59zM30 360
q17 83 66 141.5t116 58.5q12 0 23 -1.5t19 -3t18 -6t15 -6.5t15 -8t12.5 -8t13 -9.5t11.5 -8.5q46 -34 77 -34q39 0 55 56l138 -50q-11 -45 -30 -85t-57.5 -74t-86.5 -34q-32 0 -61 9t-44 18t-38 25q-49 33 -78 33q-41 0 -55 -55z" />
    <glyph glyph-name="notequal" unicode="&#x2260;" horiz-adv-x="529" 
d="M71 43l31 60h-52v169h142l28 52h-170v169h259l32 60h117l-32 -60h53v-169h-142l-28 -52h170v-169h-259l-32 -60h-117z" />
    <glyph glyph-name="lessequal" unicode="&#x2264;" horiz-adv-x="475" 
d="M50 0v160h349l-349 130v148l375 140v-160l-172 -53l172 -55v-310h-375z" />
    <glyph glyph-name="greaterequal" unicode="&#x2265;" horiz-adv-x="475" 
d="M50 0v310l172 55l-172 53v160l375 -140v-148l-349 -130h349v-160h-375z" />
    <glyph glyph-name="uniE000" unicode="&#xe000;" horiz-adv-x="593" 
d="M277 169q39 -4 65 10.5t26 47.5q0 57 -84 57h-7v163q26 0 44 13t18 40q0 23 -15.5 37t-39.5 14q-25 0 -41 -18.5t-16 -52.5v-480h-187v480q0 112 71.5 171.5t167.5 59.5q102 0 166 -56.5t64 -137.5q0 -89 -59 -133q113 -55 113 -175q0 -83 -41.5 -137t-104.5 -72t-140 -9
v178z" />
    <glyph glyph-name="uni004A0301" horiz-adv-x="548" 
d="M260 -11q-107 0 -179 53t-81 139l194 56q2 -19 15.5 -31.5t35.5 -12.5q49 0 49 63v444h214v-444q0 -267 -248 -267zM329 750l65 138h185l-104 -138h-146z" />
    <glyph glyph-name="i.loclTRK" horiz-adv-x="271" 
d="M42 0v506h187v-506h-187zM49 642q0 36 25.5 61t61.5 25q35 0 60.5 -25t25.5 -61t-25.5 -61t-60.5 -25q-36 0 -61.5 25t-25.5 61z" />
    <glyph glyph-name="uni006A0301" horiz-adv-x="260" 
d="M-20 -48q35 0 49 17.5t14 56.5v480h187v-488q0 -131 -58.5 -193.5t-191.5 -62.5v190zM63 560l65 138h185l-104 -138h-146z" />
    </font>
</defs>
</svg>
